<?xml version="1.0" encoding="utf-8" standalone="no"?>
<!DOCTYPE svg PUBLIC "-//W3C//DTD SVG 1.1//EN"
  "http://www.w3.org/Graphics/SVG/1.1/DTD/svg11.dtd">
<svg xmlns:xlink="http://www.w3.org/1999/xlink" width="648pt" height="216pt" viewBox="0 0 648 216" xmlns="http://www.w3.org/2000/svg" version="1.1">
 <metadata>
  <rdf:RDF xmlns:dc="http://purl.org/dc/elements/1.1/" xmlns:cc="http://creativecommons.org/ns#" xmlns:rdf="http://www.w3.org/1999/02/22-rdf-syntax-ns#">
   <cc:Work>
    <dc:type rdf:resource="http://purl.org/dc/dcmitype/StillImage"/>
    <dc:date>2025-06-13T21:50:49.501408</dc:date>
    <dc:format>image/svg+xml</dc:format>
    <dc:creator>
     <cc:Agent>
      <dc:title>Matplotlib v3.10.0, https://matplotlib.org/</dc:title>
     </cc:Agent>
    </dc:creator>
   </cc:Work>
  </rdf:RDF>
 </metadata>
 <defs>
  <style type="text/css">*{stroke-linejoin: round; stroke-linecap: butt}</style>
 </defs>
 <g id="figure_1">
  <g id="patch_1">
   <path d="M 0 216 
L 648 216 
L 648 0 
L 0 0 
z
" style="fill: #ffffff"/>
  </g>
  <g id="axes_1">
   <g id="patch_2">
    <path d="M 57.14375 190.05 
L 584.48125 190.05 
L 584.48125 33.18 
L 57.14375 33.18 
z
" style="fill: #ffffff"/>
   </g>
   <g id="FillBetweenPolyCollection_1">
    <path d="M 57.14375 190.05 
L 57.14375 190.05 
L 58.592479 190.05 
L 60.041209 190.05 
L 61.489938 179.801153 
L 62.938668 179.801153 
L 64.387397 133.569171 
L 65.836126 133.16621 
L 67.284856 133.16621 
L 68.733585 133.16621 
L 70.182315 133.16621 
L 71.631044 133.16621 
L 73.079773 183.191999 
L 74.528503 190.05 
L 75.977232 190.05 
L 77.425962 190.05 
L 78.874691 190.05 
L 80.32342 190.05 
L 81.77215 190.05 
L 83.220879 190.05 
L 84.669609 190.05 
L 86.118338 190.05 
L 87.567067 190.05 
L 89.015797 190.05 
L 90.464526 190.05 
L 91.913255 176.875424 
L 93.361985 176.875424 
L 94.810714 190.05 
L 96.259444 190.05 
L 97.708173 190.05 
L 99.156902 190.05 
L 100.605632 190.05 
L 102.054361 190.05 
L 103.503091 190.05 
L 104.95182 190.05 
L 106.400549 187.953527 
L 107.849279 190.05 
L 109.298008 190.05 
L 110.746738 190.05 
L 112.195467 190.05 
L 113.644196 190.05 
L 115.092926 190.05 
L 116.541655 190.05 
L 117.990385 190.05 
L 119.439114 190.05 
L 120.887843 190.05 
L 122.336573 190.05 
L 123.785302 190.05 
L 125.234032 190.05 
L 126.682761 190.05 
L 128.13149 190.05 
L 129.58022 190.05 
L 131.028949 176.875424 
L 132.477679 176.875424 
L 133.926408 176.875424 
L 135.375137 176.875424 
L 136.823867 190.05 
L 138.272596 190.05 
L 139.721326 174.449812 
L 141.170055 174.449812 
L 142.618784 174.449812 
L 144.067514 174.449812 
L 145.516243 190.05 
L 146.964973 190.05 
L 148.413702 190.05 
L 149.862431 190.05 
L 151.311161 178.869196 
L 152.75989 178.869196 
L 154.20862 178.869196 
L 155.657349 190.05 
L 157.106078 190.05 
L 158.554808 190.05 
L 160.003537 190.05 
L 161.452266 190.05 
L 162.900996 190.05 
L 164.349725 190.05 
L 165.798455 190.05 
L 167.247184 190.05 
L 168.695913 190.05 
L 170.144643 190.05 
L 171.593372 190.05 
L 173.042102 190.05 
L 174.490831 190.05 
L 175.93956 190.05 
L 177.38829 190.05 
L 178.837019 190.05 
L 180.285749 190.05 
L 181.734478 153.719367 
L 183.183207 153.719367 
L 184.631937 153.545521 
L 186.080666 190.05 
L 187.529396 190.05 
L 188.978125 190.05 
L 190.426854 190.05 
L 191.875584 190.05 
L 193.324313 190.05 
L 194.773043 190.05 
L 196.221772 190.05 
L 197.670501 190.05 
L 199.119231 190.05 
L 200.56796 190.05 
L 202.01669 190.05 
L 203.465419 190.05 
L 204.914148 190.05 
L 206.362878 190.05 
L 207.811607 190.05 
L 209.260337 190.05 
L 210.709066 190.05 
L 212.157795 190.05 
L 213.606525 190.05 
L 215.055254 190.05 
L 216.503984 190.05 
L 217.952713 64.807283 
L 219.401442 47.440909 
L 220.850172 47.440909 
L 222.298901 47.440909 
L 223.74763 47.440909 
L 225.19636 47.440909 
L 226.645089 47.440909 
L 228.093819 47.440909 
L 229.542548 47.440909 
L 230.991277 47.440909 
L 232.440007 190.05 
L 233.888736 190.05 
L 235.337466 190.05 
L 236.786195 190.05 
L 238.234924 190.05 
L 239.683654 190.05 
L 241.132383 190.05 
L 242.581113 190.05 
L 244.029842 190.05 
L 245.478571 190.05 
L 246.927301 190.05 
L 248.37603 190.05 
L 249.82476 190.05 
L 251.273489 190.05 
L 252.722218 190.05 
L 254.170948 190.05 
L 255.619677 190.05 
L 257.068407 190.05 
L 258.517136 190.05 
L 259.965865 190.05 
L 261.414595 190.05 
L 262.863324 190.05 
L 264.312054 190.05 
L 265.760783 190.05 
L 267.209512 190.05 
L 268.658242 190.05 
L 270.106971 190.05 
L 271.555701 190.05 
L 273.00443 190.05 
L 274.453159 176.875424 
L 275.901889 176.875424 
L 277.350618 176.875424 
L 278.799348 176.875424 
L 280.248077 176.875424 
L 281.696806 176.875424 
L 283.145536 176.875424 
L 284.594265 190.05 
L 286.042995 190.05 
L 287.491724 190.05 
L 288.940453 190.05 
L 290.389183 190.05 
L 291.837912 190.05 
L 293.286641 178.309027 
L 294.735371 178.309027 
L 296.1841 178.309027 
L 297.63283 178.309027 
L 299.081559 190.05 
L 300.530288 190.05 
L 301.979018 190.05 
L 303.427747 190.05 
L 304.876477 190.05 
L 306.325206 190.05 
L 307.773935 190.05 
L 309.222665 190.05 
L 310.671394 190.05 
L 312.120124 190.05 
L 313.568853 190.05 
L 315.017582 190.05 
L 316.466312 178.309027 
L 317.915041 178.309027 
L 319.363771 190.05 
L 320.8125 190.05 
L 322.261229 186.534459 
L 323.709959 183.224894 
L 325.158688 183.224894 
L 326.607418 183.224894 
L 328.056147 185.499419 
L 329.504876 185.499419 
L 330.953606 185.499419 
L 332.402335 190.05 
L 333.851065 190.05 
L 335.299794 190.05 
L 336.748523 190.05 
L 338.197253 190.05 
L 339.645982 190.05 
L 341.094712 169.297944 
L 342.543441 169.297944 
L 343.99217 190.05 
L 345.4409 190.05 
L 346.889629 190.05 
L 348.338359 190.05 
L 349.787088 190.05 
L 351.235817 190.05 
L 352.684547 190.05 
L 354.133276 190.05 
L 355.582005 190.05 
L 357.030735 190.05 
L 358.479464 190.05 
L 359.928194 190.05 
L 361.376923 190.05 
L 362.825652 190.05 
L 364.274382 190.05 
L 365.723111 190.05 
L 367.171841 190.05 
L 368.62057 190.05 
L 370.069299 190.05 
L 371.518029 190.05 
L 372.966758 190.05 
L 374.415488 130.945616 
L 375.864217 130.945616 
L 377.312946 130.945616 
L 378.761676 130.945616 
L 380.210405 182.006637 
L 381.659135 190.05 
L 383.107864 190.05 
L 384.556593 190.05 
L 386.005323 190.05 
L 387.454052 190.05 
L 388.902782 190.05 
L 390.351511 190.05 
L 391.80024 190.05 
L 393.24897 190.05 
L 394.697699 181.980436 
L 396.146429 181.980436 
L 397.595158 181.980436 
L 399.043887 181.980436 
L 400.492617 190.05 
L 401.941346 190.05 
L 403.390076 190.05 
L 404.838805 190.05 
L 406.287534 190.05 
L 407.736264 190.05 
L 409.184993 190.05 
L 410.633723 190.05 
L 412.082452 190.05 
L 413.531181 190.05 
L 414.979911 190.05 
L 416.42864 190.05 
L 417.87737 190.05 
L 419.326099 190.05 
L 420.774828 190.05 
L 422.223558 190.05 
L 423.672287 190.05 
L 425.121016 190.05 
L 426.569746 190.05 
L 428.018475 190.05 
L 429.467205 190.05 
L 430.915934 190.05 
L 432.364663 190.05 
L 433.813393 190.05 
L 435.262122 190.05 
L 436.710852 190.05 
L 438.159581 181.302458 
L 439.60831 181.302458 
L 441.05704 190.05 
L 442.505769 190.05 
L 443.954499 190.05 
L 445.403228 190.05 
L 446.851957 190.05 
L 448.300687 190.05 
L 449.749416 190.05 
L 451.198146 190.05 
L 452.646875 190.05 
L 454.095604 190.05 
L 455.544334 181.951366 
L 456.993063 181.951366 
L 458.441793 190.05 
L 459.890522 190.05 
L 461.339251 190.05 
L 462.787981 190.05 
L 464.23671 190.05 
L 465.68544 190.05 
L 467.134169 190.05 
L 468.582898 190.05 
L 470.031628 190.05 
L 471.480357 190.05 
L 472.929087 190.05 
L 474.377816 190.05 
L 475.826545 157.423097 
L 477.275275 157.423097 
L 478.724004 157.423097 
L 480.172734 157.423097 
L 481.621463 190.05 
L 483.070192 190.05 
L 484.518922 190.05 
L 485.967651 190.05 
L 487.41638 190.05 
L 488.86511 190.05 
L 490.313839 190.05 
L 491.762569 190.05 
L 493.211298 190.05 
L 494.660027 190.05 
L 496.108757 190.05 
L 497.557486 190.05 
L 499.006216 190.05 
L 500.454945 190.05 
L 501.903674 190.05 
L 503.352404 190.05 
L 504.801133 190.05 
L 506.249863 190.05 
L 507.698592 190.05 
L 509.147321 190.05 
L 510.596051 190.05 
L 512.04478 190.05 
L 513.49351 190.05 
L 514.942239 190.05 
L 516.390968 190.05 
L 517.839698 190.05 
L 519.288427 190.05 
L 520.737157 190.05 
L 522.185886 190.05 
L 523.634615 190.05 
L 525.083345 190.05 
L 526.532074 190.05 
L 527.980804 190.05 
L 529.429533 190.05 
L 530.878262 190.05 
L 532.326992 190.05 
L 533.775721 175.012275 
L 535.224451 175.012275 
L 536.67318 175.012275 
L 538.121909 175.012275 
L 539.570639 175.012275 
L 541.019368 175.012275 
L 542.468098 190.05 
L 543.916827 190.05 
L 545.365556 190.05 
L 546.814286 190.05 
L 548.263015 190.05 
L 549.711745 190.05 
L 551.160474 190.05 
L 552.609203 190.05 
L 554.057933 190.05 
L 555.506662 190.05 
L 556.955391 190.05 
L 558.404121 190.05 
L 559.85285 190.05 
L 561.30158 190.05 
L 562.750309 190.05 
L 564.199038 190.05 
L 565.647768 190.05 
L 567.096497 190.05 
L 568.545227 190.05 
L 569.993956 190.05 
L 571.442685 190.05 
L 572.891415 190.05 
L 574.340144 190.05 
L 575.788874 190.05 
L 577.237603 173.664352 
L 578.686332 173.664352 
L 580.135062 173.664352 
L 581.583791 190.05 
L 583.032521 190.05 
L 584.48125 190.05 
L 584.48125 190.05 
L 584.48125 190.05 
L 583.032521 190.05 
L 581.583791 190.05 
L 580.135062 190.05 
L 578.686332 190.05 
L 577.237603 190.05 
L 575.788874 190.05 
L 574.340144 190.05 
L 572.891415 190.05 
L 571.442685 190.05 
L 569.993956 190.05 
L 568.545227 190.05 
L 567.096497 190.05 
L 565.647768 190.05 
L 564.199038 190.05 
L 562.750309 190.05 
L 561.30158 190.05 
L 559.85285 190.05 
L 558.404121 190.05 
L 556.955391 190.05 
L 555.506662 190.05 
L 554.057933 190.05 
L 552.609203 190.05 
L 551.160474 190.05 
L 549.711745 190.05 
L 548.263015 190.05 
L 546.814286 190.05 
L 545.365556 190.05 
L 543.916827 190.05 
L 542.468098 190.05 
L 541.019368 190.05 
L 539.570639 190.05 
L 538.121909 190.05 
L 536.67318 190.05 
L 535.224451 190.05 
L 533.775721 190.05 
L 532.326992 190.05 
L 530.878262 190.05 
L 529.429533 190.05 
L 527.980804 190.05 
L 526.532074 190.05 
L 525.083345 190.05 
L 523.634615 190.05 
L 522.185886 190.05 
L 520.737157 190.05 
L 519.288427 190.05 
L 517.839698 190.05 
L 516.390968 190.05 
L 514.942239 190.05 
L 513.49351 190.05 
L 512.04478 190.05 
L 510.596051 190.05 
L 509.147321 190.05 
L 507.698592 190.05 
L 506.249863 190.05 
L 504.801133 190.05 
L 503.352404 190.05 
L 501.903674 190.05 
L 500.454945 190.05 
L 499.006216 190.05 
L 497.557486 190.05 
L 496.108757 190.05 
L 494.660027 190.05 
L 493.211298 190.05 
L 491.762569 190.05 
L 490.313839 190.05 
L 488.86511 190.05 
L 487.41638 190.05 
L 485.967651 190.05 
L 484.518922 190.05 
L 483.070192 190.05 
L 481.621463 190.05 
L 480.172734 190.05 
L 478.724004 190.05 
L 477.275275 190.05 
L 475.826545 190.05 
L 474.377816 190.05 
L 472.929087 190.05 
L 471.480357 190.05 
L 470.031628 190.05 
L 468.582898 190.05 
L 467.134169 190.05 
L 465.68544 190.05 
L 464.23671 190.05 
L 462.787981 190.05 
L 461.339251 190.05 
L 459.890522 190.05 
L 458.441793 190.05 
L 456.993063 190.05 
L 455.544334 190.05 
L 454.095604 190.05 
L 452.646875 190.05 
L 451.198146 190.05 
L 449.749416 190.05 
L 448.300687 190.05 
L 446.851957 190.05 
L 445.403228 190.05 
L 443.954499 190.05 
L 442.505769 190.05 
L 441.05704 190.05 
L 439.60831 190.05 
L 438.159581 190.05 
L 436.710852 190.05 
L 435.262122 190.05 
L 433.813393 190.05 
L 432.364663 190.05 
L 430.915934 190.05 
L 429.467205 190.05 
L 428.018475 190.05 
L 426.569746 190.05 
L 425.121016 190.05 
L 423.672287 190.05 
L 422.223558 190.05 
L 420.774828 190.05 
L 419.326099 190.05 
L 417.87737 190.05 
L 416.42864 190.05 
L 414.979911 190.05 
L 413.531181 190.05 
L 412.082452 190.05 
L 410.633723 190.05 
L 409.184993 190.05 
L 407.736264 190.05 
L 406.287534 190.05 
L 404.838805 190.05 
L 403.390076 190.05 
L 401.941346 190.05 
L 400.492617 190.05 
L 399.043887 190.05 
L 397.595158 190.05 
L 396.146429 190.05 
L 394.697699 190.05 
L 393.24897 190.05 
L 391.80024 190.05 
L 390.351511 190.05 
L 388.902782 190.05 
L 387.454052 190.05 
L 386.005323 190.05 
L 384.556593 190.05 
L 383.107864 190.05 
L 381.659135 190.05 
L 380.210405 190.05 
L 378.761676 190.05 
L 377.312946 190.05 
L 375.864217 190.05 
L 374.415488 190.05 
L 372.966758 190.05 
L 371.518029 190.05 
L 370.069299 190.05 
L 368.62057 190.05 
L 367.171841 190.05 
L 365.723111 190.05 
L 364.274382 190.05 
L 362.825652 190.05 
L 361.376923 190.05 
L 359.928194 190.05 
L 358.479464 190.05 
L 357.030735 190.05 
L 355.582005 190.05 
L 354.133276 190.05 
L 352.684547 190.05 
L 351.235817 190.05 
L 349.787088 190.05 
L 348.338359 190.05 
L 346.889629 190.05 
L 345.4409 190.05 
L 343.99217 190.05 
L 342.543441 190.05 
L 341.094712 190.05 
L 339.645982 190.05 
L 338.197253 190.05 
L 336.748523 190.05 
L 335.299794 190.05 
L 333.851065 190.05 
L 332.402335 190.05 
L 330.953606 190.05 
L 329.504876 190.05 
L 328.056147 190.05 
L 326.607418 190.05 
L 325.158688 190.05 
L 323.709959 190.05 
L 322.261229 190.05 
L 320.8125 190.05 
L 319.363771 190.05 
L 317.915041 190.05 
L 316.466312 190.05 
L 315.017582 190.05 
L 313.568853 190.05 
L 312.120124 190.05 
L 310.671394 190.05 
L 309.222665 190.05 
L 307.773935 190.05 
L 306.325206 190.05 
L 304.876477 190.05 
L 303.427747 190.05 
L 301.979018 190.05 
L 300.530288 190.05 
L 299.081559 190.05 
L 297.63283 190.05 
L 296.1841 190.05 
L 294.735371 190.05 
L 293.286641 190.05 
L 291.837912 190.05 
L 290.389183 190.05 
L 288.940453 190.05 
L 287.491724 190.05 
L 286.042995 190.05 
L 284.594265 190.05 
L 283.145536 190.05 
L 281.696806 190.05 
L 280.248077 190.05 
L 278.799348 190.05 
L 277.350618 190.05 
L 275.901889 190.05 
L 274.453159 190.05 
L 273.00443 190.05 
L 271.555701 190.05 
L 270.106971 190.05 
L 268.658242 190.05 
L 267.209512 190.05 
L 265.760783 190.05 
L 264.312054 190.05 
L 262.863324 190.05 
L 261.414595 190.05 
L 259.965865 190.05 
L 258.517136 190.05 
L 257.068407 190.05 
L 255.619677 190.05 
L 254.170948 190.05 
L 252.722218 190.05 
L 251.273489 190.05 
L 249.82476 190.05 
L 248.37603 190.05 
L 246.927301 190.05 
L 245.478571 190.05 
L 244.029842 190.05 
L 242.581113 190.05 
L 241.132383 190.05 
L 239.683654 190.05 
L 238.234924 190.05 
L 236.786195 190.05 
L 235.337466 190.05 
L 233.888736 190.05 
L 232.440007 190.05 
L 230.991277 190.05 
L 229.542548 190.05 
L 228.093819 190.05 
L 226.645089 190.05 
L 225.19636 190.05 
L 223.74763 190.05 
L 222.298901 190.05 
L 220.850172 190.05 
L 219.401442 190.05 
L 217.952713 190.05 
L 216.503984 190.05 
L 215.055254 190.05 
L 213.606525 190.05 
L 212.157795 190.05 
L 210.709066 190.05 
L 209.260337 190.05 
L 207.811607 190.05 
L 206.362878 190.05 
L 204.914148 190.05 
L 203.465419 190.05 
L 202.01669 190.05 
L 200.56796 190.05 
L 199.119231 190.05 
L 197.670501 190.05 
L 196.221772 190.05 
L 194.773043 190.05 
L 193.324313 190.05 
L 191.875584 190.05 
L 190.426854 190.05 
L 188.978125 190.05 
L 187.529396 190.05 
L 186.080666 190.05 
L 184.631937 190.05 
L 183.183207 190.05 
L 181.734478 190.05 
L 180.285749 190.05 
L 178.837019 190.05 
L 177.38829 190.05 
L 175.93956 190.05 
L 174.490831 190.05 
L 173.042102 190.05 
L 171.593372 190.05 
L 170.144643 190.05 
L 168.695913 190.05 
L 167.247184 190.05 
L 165.798455 190.05 
L 164.349725 190.05 
L 162.900996 190.05 
L 161.452266 190.05 
L 160.003537 190.05 
L 158.554808 190.05 
L 157.106078 190.05 
L 155.657349 190.05 
L 154.20862 190.05 
L 152.75989 190.05 
L 151.311161 190.05 
L 149.862431 190.05 
L 148.413702 190.05 
L 146.964973 190.05 
L 145.516243 190.05 
L 144.067514 190.05 
L 142.618784 190.05 
L 141.170055 190.05 
L 139.721326 190.05 
L 138.272596 190.05 
L 136.823867 190.05 
L 135.375137 190.05 
L 133.926408 190.05 
L 132.477679 190.05 
L 131.028949 190.05 
L 129.58022 190.05 
L 128.13149 190.05 
L 126.682761 190.05 
L 125.234032 190.05 
L 123.785302 190.05 
L 122.336573 190.05 
L 120.887843 190.05 
L 119.439114 190.05 
L 117.990385 190.05 
L 116.541655 190.05 
L 115.092926 190.05 
L 113.644196 190.05 
L 112.195467 190.05 
L 110.746738 190.05 
L 109.298008 190.05 
L 107.849279 190.05 
L 106.400549 190.05 
L 104.95182 190.05 
L 103.503091 190.05 
L 102.054361 190.05 
L 100.605632 190.05 
L 99.156902 190.05 
L 97.708173 190.05 
L 96.259444 190.05 
L 94.810714 190.05 
L 93.361985 190.05 
L 91.913255 190.05 
L 90.464526 190.05 
L 89.015797 190.05 
L 87.567067 190.05 
L 86.118338 190.05 
L 84.669609 190.05 
L 83.220879 190.05 
L 81.77215 190.05 
L 80.32342 190.05 
L 78.874691 190.05 
L 77.425962 190.05 
L 75.977232 190.05 
L 74.528503 190.05 
L 73.079773 190.05 
L 71.631044 190.05 
L 70.182315 190.05 
L 68.733585 190.05 
L 67.284856 190.05 
L 65.836126 190.05 
L 64.387397 190.05 
L 62.938668 190.05 
L 61.489938 190.05 
L 60.041209 190.05 
L 58.592479 190.05 
L 57.14375 190.05 
z
" clip-path="url(#p6a24513eb9)" style="fill: #bf500c; fill-opacity: 0.1"/>
   </g>
   <g id="matplotlib.axis_1">
    <g id="xtick_1">
     <g id="line2d_1">
      <path d="M 57.14375 190.05 
L 57.14375 33.18 
" clip-path="url(#p6a24513eb9)" style="fill: none; stroke: #d0d0d0; stroke-width: 0.8; stroke-linecap: square"/>
     </g>
     <g id="line2d_2"/>
    </g>
    <g id="xtick_2">
     <g id="line2d_3">
      <path d="M 102.054361 190.05 
L 102.054361 33.18 
" clip-path="url(#p6a24513eb9)" style="fill: none; stroke: #d0d0d0; stroke-width: 0.8; stroke-linecap: square"/>
     </g>
     <g id="line2d_4"/>
    </g>
    <g id="xtick_3">
     <g id="line2d_5">
      <path d="M 142.618784 190.05 
L 142.618784 33.18 
" clip-path="url(#p6a24513eb9)" style="fill: none; stroke: #d0d0d0; stroke-width: 0.8; stroke-linecap: square"/>
     </g>
     <g id="line2d_6"/>
    </g>
    <g id="xtick_4">
     <g id="line2d_7">
      <path d="M 187.529396 190.05 
L 187.529396 33.18 
" clip-path="url(#p6a24513eb9)" style="fill: none; stroke: #d0d0d0; stroke-width: 0.8; stroke-linecap: square"/>
     </g>
     <g id="line2d_8"/>
    </g>
    <g id="xtick_5">
     <g id="line2d_9">
      <path d="M 230.991277 190.05 
L 230.991277 33.18 
" clip-path="url(#p6a24513eb9)" style="fill: none; stroke: #d0d0d0; stroke-width: 0.8; stroke-linecap: square"/>
     </g>
     <g id="line2d_10"/>
    </g>
    <g id="xtick_6">
     <g id="line2d_11">
      <path d="M 275.901889 190.05 
L 275.901889 33.18 
" clip-path="url(#p6a24513eb9)" style="fill: none; stroke: #d0d0d0; stroke-width: 0.8; stroke-linecap: square"/>
     </g>
     <g id="line2d_12"/>
    </g>
    <g id="xtick_7">
     <g id="line2d_13">
      <path d="M 319.363771 190.05 
L 319.363771 33.18 
" clip-path="url(#p6a24513eb9)" style="fill: none; stroke: #d0d0d0; stroke-width: 0.8; stroke-linecap: square"/>
     </g>
     <g id="line2d_14"/>
    </g>
    <g id="xtick_8">
     <g id="line2d_15">
      <path d="M 364.274382 190.05 
L 364.274382 33.18 
" clip-path="url(#p6a24513eb9)" style="fill: none; stroke: #d0d0d0; stroke-width: 0.8; stroke-linecap: square"/>
     </g>
     <g id="line2d_16"/>
    </g>
    <g id="xtick_9">
     <g id="line2d_17">
      <path d="M 409.184993 190.05 
L 409.184993 33.18 
" clip-path="url(#p6a24513eb9)" style="fill: none; stroke: #d0d0d0; stroke-width: 0.8; stroke-linecap: square"/>
     </g>
     <g id="line2d_18"/>
    </g>
    <g id="xtick_10">
     <g id="line2d_19">
      <path d="M 452.646875 190.05 
L 452.646875 33.18 
" clip-path="url(#p6a24513eb9)" style="fill: none; stroke: #d0d0d0; stroke-width: 0.8; stroke-linecap: square"/>
     </g>
     <g id="line2d_20"/>
    </g>
    <g id="xtick_11">
     <g id="line2d_21">
      <path d="M 497.557486 190.05 
L 497.557486 33.18 
" clip-path="url(#p6a24513eb9)" style="fill: none; stroke: #d0d0d0; stroke-width: 0.8; stroke-linecap: square"/>
     </g>
     <g id="line2d_22"/>
    </g>
    <g id="xtick_12">
     <g id="line2d_23">
      <path d="M 541.019368 190.05 
L 541.019368 33.18 
" clip-path="url(#p6a24513eb9)" style="fill: none; stroke: #d0d0d0; stroke-width: 0.8; stroke-linecap: square"/>
     </g>
     <g id="line2d_24"/>
    </g>
    <g id="xtick_13">
     <g id="line2d_25"/>
     <g id="text_1">
      <!-- Jan -->
      <g transform="translate(71.166878 203.048438) scale(0.1 -0.1)">
       <defs>
        <path id="DejaVuSans-4a" d="M 628 4666 
L 1259 4666 
L 1259 325 
Q 1259 -519 939 -900 
Q 619 -1281 -91 -1281 
L -331 -1281 
L -331 -750 
L -134 -750 
Q 284 -750 456 -515 
Q 628 -281 628 325 
L 628 4666 
z
" transform="scale(0.015625)"/>
        <path id="DejaVuSans-61" d="M 2194 1759 
Q 1497 1759 1228 1600 
Q 959 1441 959 1056 
Q 959 750 1161 570 
Q 1363 391 1709 391 
Q 2188 391 2477 730 
Q 2766 1069 2766 1631 
L 2766 1759 
L 2194 1759 
z
M 3341 1997 
L 3341 0 
L 2766 0 
L 2766 531 
Q 2569 213 2275 61 
Q 1981 -91 1556 -91 
Q 1019 -91 701 211 
Q 384 513 384 1019 
Q 384 1609 779 1909 
Q 1175 2209 1959 2209 
L 2766 2209 
L 2766 2266 
Q 2766 2663 2505 2880 
Q 2244 3097 1772 3097 
Q 1472 3097 1187 3025 
Q 903 2953 641 2809 
L 641 3341 
Q 956 3463 1253 3523 
Q 1550 3584 1831 3584 
Q 2591 3584 2966 3190 
Q 3341 2797 3341 1997 
z
" transform="scale(0.015625)"/>
        <path id="DejaVuSans-6e" d="M 3513 2113 
L 3513 0 
L 2938 0 
L 2938 2094 
Q 2938 2591 2744 2837 
Q 2550 3084 2163 3084 
Q 1697 3084 1428 2787 
Q 1159 2491 1159 1978 
L 1159 0 
L 581 0 
L 581 3500 
L 1159 3500 
L 1159 2956 
Q 1366 3272 1645 3428 
Q 1925 3584 2291 3584 
Q 2894 3584 3203 3211 
Q 3513 2838 3513 2113 
z
" transform="scale(0.015625)"/>
       </defs>
       <use xlink:href="#DejaVuSans-4a"/>
       <use xlink:href="#DejaVuSans-61" transform="translate(29.492188 0)"/>
       <use xlink:href="#DejaVuSans-6e" transform="translate(90.771484 0)"/>
      </g>
     </g>
    </g>
    <g id="xtick_14">
     <g id="line2d_26"/>
     <g id="text_2">
      <!-- Feb -->
      <g transform="translate(114.93374 203.048438) scale(0.1 -0.1)">
       <defs>
        <path id="DejaVuSans-46" d="M 628 4666 
L 3309 4666 
L 3309 4134 
L 1259 4134 
L 1259 2759 
L 3109 2759 
L 3109 2228 
L 1259 2228 
L 1259 0 
L 628 0 
L 628 4666 
z
" transform="scale(0.015625)"/>
        <path id="DejaVuSans-65" d="M 3597 1894 
L 3597 1613 
L 953 1613 
Q 991 1019 1311 708 
Q 1631 397 2203 397 
Q 2534 397 2845 478 
Q 3156 559 3463 722 
L 3463 178 
Q 3153 47 2828 -22 
Q 2503 -91 2169 -91 
Q 1331 -91 842 396 
Q 353 884 353 1716 
Q 353 2575 817 3079 
Q 1281 3584 2069 3584 
Q 2775 3584 3186 3129 
Q 3597 2675 3597 1894 
z
M 3022 2063 
Q 3016 2534 2758 2815 
Q 2500 3097 2075 3097 
Q 1594 3097 1305 2825 
Q 1016 2553 972 2059 
L 3022 2063 
z
" transform="scale(0.015625)"/>
        <path id="DejaVuSans-62" d="M 3116 1747 
Q 3116 2381 2855 2742 
Q 2594 3103 2138 3103 
Q 1681 3103 1420 2742 
Q 1159 2381 1159 1747 
Q 1159 1113 1420 752 
Q 1681 391 2138 391 
Q 2594 391 2855 752 
Q 3116 1113 3116 1747 
z
M 1159 2969 
Q 1341 3281 1617 3432 
Q 1894 3584 2278 3584 
Q 2916 3584 3314 3078 
Q 3713 2572 3713 1747 
Q 3713 922 3314 415 
Q 2916 -91 2278 -91 
Q 1894 -91 1617 61 
Q 1341 213 1159 525 
L 1159 0 
L 581 0 
L 581 4863 
L 1159 4863 
L 1159 2969 
z
" transform="scale(0.015625)"/>
       </defs>
       <use xlink:href="#DejaVuSans-46"/>
       <use xlink:href="#DejaVuSans-65" transform="translate(52.019531 0)"/>
       <use xlink:href="#DejaVuSans-62" transform="translate(113.542969 0)"/>
      </g>
     </g>
    </g>
    <g id="xtick_15">
     <g id="line2d_27"/>
     <g id="text_3">
      <!-- Mar -->
      <g transform="translate(154.916132 203.048438) scale(0.1 -0.1)">
       <defs>
        <path id="DejaVuSans-4d" d="M 628 4666 
L 1569 4666 
L 2759 1491 
L 3956 4666 
L 4897 4666 
L 4897 0 
L 4281 0 
L 4281 4097 
L 3078 897 
L 2444 897 
L 1241 4097 
L 1241 0 
L 628 0 
L 628 4666 
z
" transform="scale(0.015625)"/>
        <path id="DejaVuSans-72" d="M 2631 2963 
Q 2534 3019 2420 3045 
Q 2306 3072 2169 3072 
Q 1681 3072 1420 2755 
Q 1159 2438 1159 1844 
L 1159 0 
L 581 0 
L 581 3500 
L 1159 3500 
L 1159 2956 
Q 1341 3275 1631 3429 
Q 1922 3584 2338 3584 
Q 2397 3584 2469 3576 
Q 2541 3569 2628 3553 
L 2631 2963 
z
" transform="scale(0.015625)"/>
       </defs>
       <use xlink:href="#DejaVuSans-4d"/>
       <use xlink:href="#DejaVuSans-61" transform="translate(86.279297 0)"/>
       <use xlink:href="#DejaVuSans-72" transform="translate(147.558594 0)"/>
      </g>
     </g>
    </g>
    <g id="xtick_16">
     <g id="line2d_28"/>
     <g id="text_4">
      <!-- Apr -->
      <g transform="translate(200.610337 203.048438) scale(0.1 -0.1)">
       <defs>
        <path id="DejaVuSans-41" d="M 2188 4044 
L 1331 1722 
L 3047 1722 
L 2188 4044 
z
M 1831 4666 
L 2547 4666 
L 4325 0 
L 3669 0 
L 3244 1197 
L 1141 1197 
L 716 0 
L 50 0 
L 1831 4666 
z
" transform="scale(0.015625)"/>
        <path id="DejaVuSans-70" d="M 1159 525 
L 1159 -1331 
L 581 -1331 
L 581 3500 
L 1159 3500 
L 1159 2969 
Q 1341 3281 1617 3432 
Q 1894 3584 2278 3584 
Q 2916 3584 3314 3078 
Q 3713 2572 3713 1747 
Q 3713 922 3314 415 
Q 2916 -91 2278 -91 
Q 1894 -91 1617 61 
Q 1341 213 1159 525 
z
M 3116 1747 
Q 3116 2381 2855 2742 
Q 2594 3103 2138 3103 
Q 1681 3103 1420 2742 
Q 1159 2381 1159 1747 
Q 1159 1113 1420 752 
Q 1681 391 2138 391 
Q 2594 391 2855 752 
Q 3116 1113 3116 1747 
z
" transform="scale(0.015625)"/>
       </defs>
       <use xlink:href="#DejaVuSans-41"/>
       <use xlink:href="#DejaVuSans-70" transform="translate(68.408203 0)"/>
       <use xlink:href="#DejaVuSans-72" transform="translate(131.884766 0)"/>
      </g>
     </g>
    </g>
    <g id="xtick_17">
     <g id="line2d_29"/>
     <g id="text_5">
      <!-- May -->
      <g transform="translate(242.384718 203.048438) scale(0.1 -0.1)">
       <defs>
        <path id="DejaVuSans-79" d="M 2059 -325 
Q 1816 -950 1584 -1140 
Q 1353 -1331 966 -1331 
L 506 -1331 
L 506 -850 
L 844 -850 
Q 1081 -850 1212 -737 
Q 1344 -625 1503 -206 
L 1606 56 
L 191 3500 
L 800 3500 
L 1894 763 
L 2988 3500 
L 3597 3500 
L 2059 -325 
z
" transform="scale(0.015625)"/>
       </defs>
       <use xlink:href="#DejaVuSans-4d"/>
       <use xlink:href="#DejaVuSans-61" transform="translate(86.279297 0)"/>
       <use xlink:href="#DejaVuSans-79" transform="translate(147.558594 0)"/>
      </g>
     </g>
    </g>
    <g id="xtick_18">
     <g id="line2d_30"/>
     <g id="text_6">
      <!-- Jun -->
      <g transform="translate(289.82033 203.048438) scale(0.1 -0.1)">
       <defs>
        <path id="DejaVuSans-75" d="M 544 1381 
L 544 3500 
L 1119 3500 
L 1119 1403 
Q 1119 906 1312 657 
Q 1506 409 1894 409 
Q 2359 409 2629 706 
Q 2900 1003 2900 1516 
L 2900 3500 
L 3475 3500 
L 3475 0 
L 2900 0 
L 2900 538 
Q 2691 219 2414 64 
Q 2138 -91 1772 -91 
Q 1169 -91 856 284 
Q 544 659 544 1381 
z
M 1991 3584 
L 1991 3584 
z
" transform="scale(0.015625)"/>
       </defs>
       <use xlink:href="#DejaVuSans-4a"/>
       <use xlink:href="#DejaVuSans-75" transform="translate(29.492188 0)"/>
       <use xlink:href="#DejaVuSans-6e" transform="translate(92.871094 0)"/>
      </g>
     </g>
    </g>
    <g id="xtick_19">
     <g id="line2d_31"/>
     <g id="text_7">
      <!-- Jul -->
      <g transform="translate(335.061899 203.048438) scale(0.1 -0.1)">
       <defs>
        <path id="DejaVuSans-6c" d="M 603 4863 
L 1178 4863 
L 1178 0 
L 603 0 
L 603 4863 
z
" transform="scale(0.015625)"/>
       </defs>
       <use xlink:href="#DejaVuSans-4a"/>
       <use xlink:href="#DejaVuSans-75" transform="translate(29.492188 0)"/>
       <use xlink:href="#DejaVuSans-6c" transform="translate(92.871094 0)"/>
      </g>
     </g>
    </g>
    <g id="xtick_20">
     <g id="line2d_32"/>
     <g id="text_8">
      <!-- Aug -->
      <g transform="translate(376.242042 203.048438) scale(0.1 -0.1)">
       <defs>
        <path id="DejaVuSans-67" d="M 2906 1791 
Q 2906 2416 2648 2759 
Q 2391 3103 1925 3103 
Q 1463 3103 1205 2759 
Q 947 2416 947 1791 
Q 947 1169 1205 825 
Q 1463 481 1925 481 
Q 2391 481 2648 825 
Q 2906 1169 2906 1791 
z
M 3481 434 
Q 3481 -459 3084 -895 
Q 2688 -1331 1869 -1331 
Q 1566 -1331 1297 -1286 
Q 1028 -1241 775 -1147 
L 775 -588 
Q 1028 -725 1275 -790 
Q 1522 -856 1778 -856 
Q 2344 -856 2625 -561 
Q 2906 -266 2906 331 
L 2906 616 
Q 2728 306 2450 153 
Q 2172 0 1784 0 
Q 1141 0 747 490 
Q 353 981 353 1791 
Q 353 2603 747 3093 
Q 1141 3584 1784 3584 
Q 2172 3584 2450 3431 
Q 2728 3278 2906 2969 
L 2906 3500 
L 3481 3500 
L 3481 434 
z
" transform="scale(0.015625)"/>
       </defs>
       <use xlink:href="#DejaVuSans-41"/>
       <use xlink:href="#DejaVuSans-75" transform="translate(68.408203 0)"/>
       <use xlink:href="#DejaVuSans-67" transform="translate(131.787109 0)"/>
      </g>
     </g>
    </g>
    <g id="xtick_21">
     <g id="line2d_33"/>
     <g id="text_9">
      <!-- Sep -->
      <g transform="translate(421.490934 203.048438) scale(0.1 -0.1)">
       <defs>
        <path id="DejaVuSans-53" d="M 3425 4513 
L 3425 3897 
Q 3066 4069 2747 4153 
Q 2428 4238 2131 4238 
Q 1616 4238 1336 4038 
Q 1056 3838 1056 3469 
Q 1056 3159 1242 3001 
Q 1428 2844 1947 2747 
L 2328 2669 
Q 3034 2534 3370 2195 
Q 3706 1856 3706 1288 
Q 3706 609 3251 259 
Q 2797 -91 1919 -91 
Q 1588 -91 1214 -16 
Q 841 59 441 206 
L 441 856 
Q 825 641 1194 531 
Q 1563 422 1919 422 
Q 2459 422 2753 634 
Q 3047 847 3047 1241 
Q 3047 1584 2836 1778 
Q 2625 1972 2144 2069 
L 1759 2144 
Q 1053 2284 737 2584 
Q 422 2884 422 3419 
Q 422 4038 858 4394 
Q 1294 4750 2059 4750 
Q 2388 4750 2728 4690 
Q 3069 4631 3425 4513 
z
" transform="scale(0.015625)"/>
       </defs>
       <use xlink:href="#DejaVuSans-53"/>
       <use xlink:href="#DejaVuSans-65" transform="translate(63.476562 0)"/>
       <use xlink:href="#DejaVuSans-70" transform="translate(125 0)"/>
      </g>
     </g>
    </g>
    <g id="xtick_22">
     <g id="line2d_34"/>
     <g id="text_10">
      <!-- Oct -->
      <g transform="translate(465.732503 203.048438) scale(0.1 -0.1)">
       <defs>
        <path id="DejaVuSans-4f" d="M 2522 4238 
Q 1834 4238 1429 3725 
Q 1025 3213 1025 2328 
Q 1025 1447 1429 934 
Q 1834 422 2522 422 
Q 3209 422 3611 934 
Q 4013 1447 4013 2328 
Q 4013 3213 3611 3725 
Q 3209 4238 2522 4238 
z
M 2522 4750 
Q 3503 4750 4090 4092 
Q 4678 3434 4678 2328 
Q 4678 1225 4090 567 
Q 3503 -91 2522 -91 
Q 1538 -91 948 565 
Q 359 1222 359 2328 
Q 359 3434 948 4092 
Q 1538 4750 2522 4750 
z
" transform="scale(0.015625)"/>
        <path id="DejaVuSans-63" d="M 3122 3366 
L 3122 2828 
Q 2878 2963 2633 3030 
Q 2388 3097 2138 3097 
Q 1578 3097 1268 2742 
Q 959 2388 959 1747 
Q 959 1106 1268 751 
Q 1578 397 2138 397 
Q 2388 397 2633 464 
Q 2878 531 3122 666 
L 3122 134 
Q 2881 22 2623 -34 
Q 2366 -91 2075 -91 
Q 1284 -91 818 406 
Q 353 903 353 1747 
Q 353 2603 823 3093 
Q 1294 3584 2113 3584 
Q 2378 3584 2631 3529 
Q 2884 3475 3122 3366 
z
" transform="scale(0.015625)"/>
        <path id="DejaVuSans-74" d="M 1172 4494 
L 1172 3500 
L 2356 3500 
L 2356 3053 
L 1172 3053 
L 1172 1153 
Q 1172 725 1289 603 
Q 1406 481 1766 481 
L 2356 481 
L 2356 0 
L 1766 0 
Q 1100 0 847 248 
Q 594 497 594 1153 
L 594 3053 
L 172 3053 
L 172 3500 
L 594 3500 
L 594 4494 
L 1172 4494 
z
" transform="scale(0.015625)"/>
       </defs>
       <use xlink:href="#DejaVuSans-4f"/>
       <use xlink:href="#DejaVuSans-63" transform="translate(78.710938 0)"/>
       <use xlink:href="#DejaVuSans-74" transform="translate(133.691406 0)"/>
      </g>
     </g>
    </g>
    <g id="xtick_23">
     <g id="line2d_35"/>
     <g id="text_11">
      <!-- Nov -->
      <g transform="translate(509.529052 203.048438) scale(0.1 -0.1)">
       <defs>
        <path id="DejaVuSans-4e" d="M 628 4666 
L 1478 4666 
L 3547 763 
L 3547 4666 
L 4159 4666 
L 4159 0 
L 3309 0 
L 1241 3903 
L 1241 0 
L 628 0 
L 628 4666 
z
" transform="scale(0.015625)"/>
        <path id="DejaVuSans-6f" d="M 1959 3097 
Q 1497 3097 1228 2736 
Q 959 2375 959 1747 
Q 959 1119 1226 758 
Q 1494 397 1959 397 
Q 2419 397 2687 759 
Q 2956 1122 2956 1747 
Q 2956 2369 2687 2733 
Q 2419 3097 1959 3097 
z
M 1959 3584 
Q 2709 3584 3137 3096 
Q 3566 2609 3566 1747 
Q 3566 888 3137 398 
Q 2709 -91 1959 -91 
Q 1206 -91 779 398 
Q 353 888 353 1747 
Q 353 2609 779 3096 
Q 1206 3584 1959 3584 
z
" transform="scale(0.015625)"/>
        <path id="DejaVuSans-76" d="M 191 3500 
L 800 3500 
L 1894 563 
L 2988 3500 
L 3597 3500 
L 2284 0 
L 1503 0 
L 191 3500 
z
" transform="scale(0.015625)"/>
       </defs>
       <use xlink:href="#DejaVuSans-4e"/>
       <use xlink:href="#DejaVuSans-6f" transform="translate(74.804688 0)"/>
       <use xlink:href="#DejaVuSans-76" transform="translate(135.986328 0)"/>
      </g>
     </g>
    </g>
    <g id="xtick_24">
     <g id="line2d_36"/>
     <g id="text_12">
      <!-- Dec -->
      <g transform="translate(553.074528 203.048438) scale(0.1 -0.1)">
       <defs>
        <path id="DejaVuSans-44" d="M 1259 4147 
L 1259 519 
L 2022 519 
Q 2988 519 3436 956 
Q 3884 1394 3884 2338 
Q 3884 3275 3436 3711 
Q 2988 4147 2022 4147 
L 1259 4147 
z
M 628 4666 
L 1925 4666 
Q 3281 4666 3915 4102 
Q 4550 3538 4550 2338 
Q 4550 1131 3912 565 
Q 3275 0 1925 0 
L 628 0 
L 628 4666 
z
" transform="scale(0.015625)"/>
       </defs>
       <use xlink:href="#DejaVuSans-44"/>
       <use xlink:href="#DejaVuSans-65" transform="translate(77.001953 0)"/>
       <use xlink:href="#DejaVuSans-63" transform="translate(138.525391 0)"/>
      </g>
     </g>
    </g>
   </g>
   <g id="matplotlib.axis_2">
    <g id="ytick_1">
     <g id="line2d_37">
      <path d="M 57.14375 190.05 
L 584.48125 190.05 
" clip-path="url(#p6a24513eb9)" style="fill: none; stroke: #d0d0d0; stroke-width: 0.8; stroke-linecap: square"/>
     </g>
     <g id="line2d_38">
      <defs>
       <path id="mf29a4e9f2e" d="M 0 0 
L -3.5 0 
" style="stroke: #000000; stroke-width: 0.8"/>
      </defs>
      <g>
       <use xlink:href="#mf29a4e9f2e" x="57.14375" y="190.05" style="stroke: #000000; stroke-width: 0.8"/>
      </g>
     </g>
     <g id="text_13">
      <!-- 0 -->
      <g transform="translate(43.78125 193.849219) scale(0.1 -0.1)">
       <defs>
        <path id="DejaVuSans-30" d="M 2034 4250 
Q 1547 4250 1301 3770 
Q 1056 3291 1056 2328 
Q 1056 1369 1301 889 
Q 1547 409 2034 409 
Q 2525 409 2770 889 
Q 3016 1369 3016 2328 
Q 3016 3291 2770 3770 
Q 2525 4250 2034 4250 
z
M 2034 4750 
Q 2819 4750 3233 4129 
Q 3647 3509 3647 2328 
Q 3647 1150 3233 529 
Q 2819 -91 2034 -91 
Q 1250 -91 836 529 
Q 422 1150 422 2328 
Q 422 3509 836 4129 
Q 1250 4750 2034 4750 
z
" transform="scale(0.015625)"/>
       </defs>
       <use xlink:href="#DejaVuSans-30"/>
      </g>
     </g>
    </g>
    <g id="ytick_2">
     <g id="line2d_39">
      <path d="M 57.14375 151.800182 
L 584.48125 151.800182 
" clip-path="url(#p6a24513eb9)" style="fill: none; stroke: #d0d0d0; stroke-width: 0.8; stroke-linecap: square"/>
     </g>
     <g id="line2d_40">
      <g>
       <use xlink:href="#mf29a4e9f2e" x="57.14375" y="151.800182" style="stroke: #000000; stroke-width: 0.8"/>
      </g>
     </g>
     <g id="text_14">
      <!-- 2000 -->
      <g transform="translate(24.69375 155.599401) scale(0.1 -0.1)">
       <defs>
        <path id="DejaVuSans-32" d="M 1228 531 
L 3431 531 
L 3431 0 
L 469 0 
L 469 531 
Q 828 903 1448 1529 
Q 2069 2156 2228 2338 
Q 2531 2678 2651 2914 
Q 2772 3150 2772 3378 
Q 2772 3750 2511 3984 
Q 2250 4219 1831 4219 
Q 1534 4219 1204 4116 
Q 875 4013 500 3803 
L 500 4441 
Q 881 4594 1212 4672 
Q 1544 4750 1819 4750 
Q 2544 4750 2975 4387 
Q 3406 4025 3406 3419 
Q 3406 3131 3298 2873 
Q 3191 2616 2906 2266 
Q 2828 2175 2409 1742 
Q 1991 1309 1228 531 
z
" transform="scale(0.015625)"/>
       </defs>
       <use xlink:href="#DejaVuSans-32"/>
       <use xlink:href="#DejaVuSans-30" transform="translate(63.623047 0)"/>
       <use xlink:href="#DejaVuSans-30" transform="translate(127.246094 0)"/>
       <use xlink:href="#DejaVuSans-30" transform="translate(190.869141 0)"/>
      </g>
     </g>
    </g>
    <g id="ytick_3">
     <g id="line2d_41">
      <path d="M 57.14375 113.550364 
L 584.48125 113.550364 
" clip-path="url(#p6a24513eb9)" style="fill: none; stroke: #d0d0d0; stroke-width: 0.8; stroke-linecap: square"/>
     </g>
     <g id="line2d_42">
      <g>
       <use xlink:href="#mf29a4e9f2e" x="57.14375" y="113.550364" style="stroke: #000000; stroke-width: 0.8"/>
      </g>
     </g>
     <g id="text_15">
      <!-- 4000 -->
      <g transform="translate(24.69375 117.349583) scale(0.1 -0.1)">
       <defs>
        <path id="DejaVuSans-34" d="M 2419 4116 
L 825 1625 
L 2419 1625 
L 2419 4116 
z
M 2253 4666 
L 3047 4666 
L 3047 1625 
L 3713 1625 
L 3713 1100 
L 3047 1100 
L 3047 0 
L 2419 0 
L 2419 1100 
L 313 1100 
L 313 1709 
L 2253 4666 
z
" transform="scale(0.015625)"/>
       </defs>
       <use xlink:href="#DejaVuSans-34"/>
       <use xlink:href="#DejaVuSans-30" transform="translate(63.623047 0)"/>
       <use xlink:href="#DejaVuSans-30" transform="translate(127.246094 0)"/>
       <use xlink:href="#DejaVuSans-30" transform="translate(190.869141 0)"/>
      </g>
     </g>
    </g>
    <g id="ytick_4">
     <g id="line2d_43">
      <path d="M 57.14375 75.300546 
L 584.48125 75.300546 
" clip-path="url(#p6a24513eb9)" style="fill: none; stroke: #d0d0d0; stroke-width: 0.8; stroke-linecap: square"/>
     </g>
     <g id="line2d_44">
      <g>
       <use xlink:href="#mf29a4e9f2e" x="57.14375" y="75.300546" style="stroke: #000000; stroke-width: 0.8"/>
      </g>
     </g>
     <g id="text_16">
      <!-- 6000 -->
      <g transform="translate(24.69375 79.099765) scale(0.1 -0.1)">
       <defs>
        <path id="DejaVuSans-36" d="M 2113 2584 
Q 1688 2584 1439 2293 
Q 1191 2003 1191 1497 
Q 1191 994 1439 701 
Q 1688 409 2113 409 
Q 2538 409 2786 701 
Q 3034 994 3034 1497 
Q 3034 2003 2786 2293 
Q 2538 2584 2113 2584 
z
M 3366 4563 
L 3366 3988 
Q 3128 4100 2886 4159 
Q 2644 4219 2406 4219 
Q 1781 4219 1451 3797 
Q 1122 3375 1075 2522 
Q 1259 2794 1537 2939 
Q 1816 3084 2150 3084 
Q 2853 3084 3261 2657 
Q 3669 2231 3669 1497 
Q 3669 778 3244 343 
Q 2819 -91 2113 -91 
Q 1303 -91 875 529 
Q 447 1150 447 2328 
Q 447 3434 972 4092 
Q 1497 4750 2381 4750 
Q 2619 4750 2861 4703 
Q 3103 4656 3366 4563 
z
" transform="scale(0.015625)"/>
       </defs>
       <use xlink:href="#DejaVuSans-36"/>
       <use xlink:href="#DejaVuSans-30" transform="translate(63.623047 0)"/>
       <use xlink:href="#DejaVuSans-30" transform="translate(127.246094 0)"/>
       <use xlink:href="#DejaVuSans-30" transform="translate(190.869141 0)"/>
      </g>
     </g>
    </g>
    <g id="ytick_5">
     <g id="line2d_45">
      <path d="M 57.14375 37.050729 
L 584.48125 37.050729 
" clip-path="url(#p6a24513eb9)" style="fill: none; stroke: #d0d0d0; stroke-width: 0.8; stroke-linecap: square"/>
     </g>
     <g id="line2d_46">
      <g>
       <use xlink:href="#mf29a4e9f2e" x="57.14375" y="37.050729" style="stroke: #000000; stroke-width: 0.8"/>
      </g>
     </g>
     <g id="text_17">
      <!-- 8000 -->
      <g transform="translate(24.69375 40.849947) scale(0.1 -0.1)">
       <defs>
        <path id="DejaVuSans-38" d="M 2034 2216 
Q 1584 2216 1326 1975 
Q 1069 1734 1069 1313 
Q 1069 891 1326 650 
Q 1584 409 2034 409 
Q 2484 409 2743 651 
Q 3003 894 3003 1313 
Q 3003 1734 2745 1975 
Q 2488 2216 2034 2216 
z
M 1403 2484 
Q 997 2584 770 2862 
Q 544 3141 544 3541 
Q 544 4100 942 4425 
Q 1341 4750 2034 4750 
Q 2731 4750 3128 4425 
Q 3525 4100 3525 3541 
Q 3525 3141 3298 2862 
Q 3072 2584 2669 2484 
Q 3125 2378 3379 2068 
Q 3634 1759 3634 1313 
Q 3634 634 3220 271 
Q 2806 -91 2034 -91 
Q 1263 -91 848 271 
Q 434 634 434 1313 
Q 434 1759 690 2068 
Q 947 2378 1403 2484 
z
M 1172 3481 
Q 1172 3119 1398 2916 
Q 1625 2713 2034 2713 
Q 2441 2713 2670 2916 
Q 2900 3119 2900 3481 
Q 2900 3844 2670 4047 
Q 2441 4250 2034 4250 
Q 1625 4250 1398 4047 
Q 1172 3844 1172 3481 
z
" transform="scale(0.015625)"/>
       </defs>
       <use xlink:href="#DejaVuSans-38"/>
       <use xlink:href="#DejaVuSans-30" transform="translate(63.623047 0)"/>
       <use xlink:href="#DejaVuSans-30" transform="translate(127.246094 0)"/>
       <use xlink:href="#DejaVuSans-30" transform="translate(190.869141 0)"/>
      </g>
     </g>
    </g>
    <g id="ytick_6">
     <g id="line2d_47">
      <path d="M 57.14375 180.487546 
L 584.48125 180.487546 
" clip-path="url(#p6a24513eb9)" style="fill: none; stroke: #f0f0f0; stroke-width: 0.8; stroke-linecap: square"/>
     </g>
     <g id="line2d_48">
      <defs>
       <path id="m0b508d757d" d="M 0 0 
L -2 0 
" style="stroke: #000000; stroke-width: 0.6"/>
      </defs>
      <g>
       <use xlink:href="#m0b508d757d" x="57.14375" y="180.487546" style="stroke: #000000; stroke-width: 0.6"/>
      </g>
     </g>
    </g>
    <g id="ytick_7">
     <g id="line2d_49">
      <path d="M 57.14375 170.925091 
L 584.48125 170.925091 
" clip-path="url(#p6a24513eb9)" style="fill: none; stroke: #f0f0f0; stroke-width: 0.8; stroke-linecap: square"/>
     </g>
     <g id="line2d_50">
      <g>
       <use xlink:href="#m0b508d757d" x="57.14375" y="170.925091" style="stroke: #000000; stroke-width: 0.6"/>
      </g>
     </g>
    </g>
    <g id="ytick_8">
     <g id="line2d_51">
      <path d="M 57.14375 161.362637 
L 584.48125 161.362637 
" clip-path="url(#p6a24513eb9)" style="fill: none; stroke: #f0f0f0; stroke-width: 0.8; stroke-linecap: square"/>
     </g>
     <g id="line2d_52">
      <g>
       <use xlink:href="#m0b508d757d" x="57.14375" y="161.362637" style="stroke: #000000; stroke-width: 0.6"/>
      </g>
     </g>
    </g>
    <g id="ytick_9">
     <g id="line2d_53">
      <path d="M 57.14375 142.237728 
L 584.48125 142.237728 
" clip-path="url(#p6a24513eb9)" style="fill: none; stroke: #f0f0f0; stroke-width: 0.8; stroke-linecap: square"/>
     </g>
     <g id="line2d_54">
      <g>
       <use xlink:href="#m0b508d757d" x="57.14375" y="142.237728" style="stroke: #000000; stroke-width: 0.6"/>
      </g>
     </g>
    </g>
    <g id="ytick_10">
     <g id="line2d_55">
      <path d="M 57.14375 132.675273 
L 584.48125 132.675273 
" clip-path="url(#p6a24513eb9)" style="fill: none; stroke: #f0f0f0; stroke-width: 0.8; stroke-linecap: square"/>
     </g>
     <g id="line2d_56">
      <g>
       <use xlink:href="#m0b508d757d" x="57.14375" y="132.675273" style="stroke: #000000; stroke-width: 0.6"/>
      </g>
     </g>
    </g>
    <g id="ytick_11">
     <g id="line2d_57">
      <path d="M 57.14375 123.112819 
L 584.48125 123.112819 
" clip-path="url(#p6a24513eb9)" style="fill: none; stroke: #f0f0f0; stroke-width: 0.8; stroke-linecap: square"/>
     </g>
     <g id="line2d_58">
      <g>
       <use xlink:href="#m0b508d757d" x="57.14375" y="123.112819" style="stroke: #000000; stroke-width: 0.6"/>
      </g>
     </g>
    </g>
    <g id="ytick_12">
     <g id="line2d_59">
      <path d="M 57.14375 103.98791 
L 584.48125 103.98791 
" clip-path="url(#p6a24513eb9)" style="fill: none; stroke: #f0f0f0; stroke-width: 0.8; stroke-linecap: square"/>
     </g>
     <g id="line2d_60">
      <g>
       <use xlink:href="#m0b508d757d" x="57.14375" y="103.98791" style="stroke: #000000; stroke-width: 0.6"/>
      </g>
     </g>
    </g>
    <g id="ytick_13">
     <g id="line2d_61">
      <path d="M 57.14375 94.425455 
L 584.48125 94.425455 
" clip-path="url(#p6a24513eb9)" style="fill: none; stroke: #f0f0f0; stroke-width: 0.8; stroke-linecap: square"/>
     </g>
     <g id="line2d_62">
      <g>
       <use xlink:href="#m0b508d757d" x="57.14375" y="94.425455" style="stroke: #000000; stroke-width: 0.6"/>
      </g>
     </g>
    </g>
    <g id="ytick_14">
     <g id="line2d_63">
      <path d="M 57.14375 84.863001 
L 584.48125 84.863001 
" clip-path="url(#p6a24513eb9)" style="fill: none; stroke: #f0f0f0; stroke-width: 0.8; stroke-linecap: square"/>
     </g>
     <g id="line2d_64">
      <g>
       <use xlink:href="#m0b508d757d" x="57.14375" y="84.863001" style="stroke: #000000; stroke-width: 0.6"/>
      </g>
     </g>
    </g>
    <g id="ytick_15">
     <g id="line2d_65">
      <path d="M 57.14375 65.738092 
L 584.48125 65.738092 
" clip-path="url(#p6a24513eb9)" style="fill: none; stroke: #f0f0f0; stroke-width: 0.8; stroke-linecap: square"/>
     </g>
     <g id="line2d_66">
      <g>
       <use xlink:href="#m0b508d757d" x="57.14375" y="65.738092" style="stroke: #000000; stroke-width: 0.6"/>
      </g>
     </g>
    </g>
    <g id="ytick_16">
     <g id="line2d_67">
      <path d="M 57.14375 56.175637 
L 584.48125 56.175637 
" clip-path="url(#p6a24513eb9)" style="fill: none; stroke: #f0f0f0; stroke-width: 0.8; stroke-linecap: square"/>
     </g>
     <g id="line2d_68">
      <g>
       <use xlink:href="#m0b508d757d" x="57.14375" y="56.175637" style="stroke: #000000; stroke-width: 0.6"/>
      </g>
     </g>
    </g>
    <g id="ytick_17">
     <g id="line2d_69">
      <path d="M 57.14375 46.613183 
L 584.48125 46.613183 
" clip-path="url(#p6a24513eb9)" style="fill: none; stroke: #f0f0f0; stroke-width: 0.8; stroke-linecap: square"/>
     </g>
     <g id="line2d_70">
      <g>
       <use xlink:href="#m0b508d757d" x="57.14375" y="46.613183" style="stroke: #000000; stroke-width: 0.6"/>
      </g>
     </g>
    </g>
    <g id="text_18">
     <!-- Miles from Home -->
     <g transform="translate(18.614063 153.965781) rotate(-90) scale(0.1 -0.1)">
      <defs>
       <path id="DejaVuSans-69" d="M 603 3500 
L 1178 3500 
L 1178 0 
L 603 0 
L 603 3500 
z
M 603 4863 
L 1178 4863 
L 1178 4134 
L 603 4134 
L 603 4863 
z
" transform="scale(0.015625)"/>
       <path id="DejaVuSans-73" d="M 2834 3397 
L 2834 2853 
Q 2591 2978 2328 3040 
Q 2066 3103 1784 3103 
Q 1356 3103 1142 2972 
Q 928 2841 928 2578 
Q 928 2378 1081 2264 
Q 1234 2150 1697 2047 
L 1894 2003 
Q 2506 1872 2764 1633 
Q 3022 1394 3022 966 
Q 3022 478 2636 193 
Q 2250 -91 1575 -91 
Q 1294 -91 989 -36 
Q 684 19 347 128 
L 347 722 
Q 666 556 975 473 
Q 1284 391 1588 391 
Q 1994 391 2212 530 
Q 2431 669 2431 922 
Q 2431 1156 2273 1281 
Q 2116 1406 1581 1522 
L 1381 1569 
Q 847 1681 609 1914 
Q 372 2147 372 2553 
Q 372 3047 722 3315 
Q 1072 3584 1716 3584 
Q 2034 3584 2315 3537 
Q 2597 3491 2834 3397 
z
" transform="scale(0.015625)"/>
       <path id="DejaVuSans-20" transform="scale(0.015625)"/>
       <path id="DejaVuSans-66" d="M 2375 4863 
L 2375 4384 
L 1825 4384 
Q 1516 4384 1395 4259 
Q 1275 4134 1275 3809 
L 1275 3500 
L 2222 3500 
L 2222 3053 
L 1275 3053 
L 1275 0 
L 697 0 
L 697 3053 
L 147 3053 
L 147 3500 
L 697 3500 
L 697 3744 
Q 697 4328 969 4595 
Q 1241 4863 1831 4863 
L 2375 4863 
z
" transform="scale(0.015625)"/>
       <path id="DejaVuSans-6d" d="M 3328 2828 
Q 3544 3216 3844 3400 
Q 4144 3584 4550 3584 
Q 5097 3584 5394 3201 
Q 5691 2819 5691 2113 
L 5691 0 
L 5113 0 
L 5113 2094 
Q 5113 2597 4934 2840 
Q 4756 3084 4391 3084 
Q 3944 3084 3684 2787 
Q 3425 2491 3425 1978 
L 3425 0 
L 2847 0 
L 2847 2094 
Q 2847 2600 2669 2842 
Q 2491 3084 2119 3084 
Q 1678 3084 1418 2786 
Q 1159 2488 1159 1978 
L 1159 0 
L 581 0 
L 581 3500 
L 1159 3500 
L 1159 2956 
Q 1356 3278 1631 3431 
Q 1906 3584 2284 3584 
Q 2666 3584 2933 3390 
Q 3200 3197 3328 2828 
z
" transform="scale(0.015625)"/>
       <path id="DejaVuSans-48" d="M 628 4666 
L 1259 4666 
L 1259 2753 
L 3553 2753 
L 3553 4666 
L 4184 4666 
L 4184 0 
L 3553 0 
L 3553 2222 
L 1259 2222 
L 1259 0 
L 628 0 
L 628 4666 
z
" transform="scale(0.015625)"/>
      </defs>
      <use xlink:href="#DejaVuSans-4d"/>
      <use xlink:href="#DejaVuSans-69" transform="translate(86.279297 0)"/>
      <use xlink:href="#DejaVuSans-6c" transform="translate(114.0625 0)"/>
      <use xlink:href="#DejaVuSans-65" transform="translate(141.845703 0)"/>
      <use xlink:href="#DejaVuSans-73" transform="translate(203.369141 0)"/>
      <use xlink:href="#DejaVuSans-20" transform="translate(255.46875 0)"/>
      <use xlink:href="#DejaVuSans-66" transform="translate(287.255859 0)"/>
      <use xlink:href="#DejaVuSans-72" transform="translate(322.460938 0)"/>
      <use xlink:href="#DejaVuSans-6f" transform="translate(361.324219 0)"/>
      <use xlink:href="#DejaVuSans-6d" transform="translate(422.505859 0)"/>
      <use xlink:href="#DejaVuSans-20" transform="translate(519.917969 0)"/>
      <use xlink:href="#DejaVuSans-48" transform="translate(551.705078 0)"/>
      <use xlink:href="#DejaVuSans-6f" transform="translate(626.900391 0)"/>
      <use xlink:href="#DejaVuSans-6d" transform="translate(688.082031 0)"/>
      <use xlink:href="#DejaVuSans-65" transform="translate(785.494141 0)"/>
     </g>
    </g>
   </g>
   <g id="line2d_71">
    <path d="M 57.14375 190.05 
L 60.041209 190.05 
L 61.489938 179.801153 
L 62.938668 179.801153 
L 64.387397 133.569171 
L 65.836126 133.16621 
L 71.631044 133.16621 
L 73.079773 183.191999 
L 74.528503 190.05 
L 90.464526 190.05 
L 91.913255 176.875424 
L 93.361985 176.875424 
L 94.810714 190.05 
L 104.95182 190.05 
L 106.400549 187.953527 
L 107.849279 190.05 
L 129.58022 190.05 
L 131.028949 176.875424 
L 135.375137 176.875424 
L 136.823867 190.05 
L 138.272596 190.05 
L 139.721326 174.449812 
L 144.067514 174.449812 
L 145.516243 190.05 
L 149.862431 190.05 
L 151.311161 178.869196 
L 154.20862 178.869196 
L 155.657349 190.05 
L 180.285749 190.05 
L 181.734478 153.719367 
L 183.183207 153.719367 
L 184.631937 153.545521 
L 186.080666 190.05 
L 216.503984 190.05 
L 217.952713 64.807283 
L 219.401442 47.440909 
L 230.991277 47.440909 
L 232.440007 190.05 
L 273.00443 190.05 
L 274.453159 176.875424 
L 283.145536 176.875424 
L 284.594265 190.05 
L 291.837912 190.05 
L 293.286641 178.309027 
L 297.63283 178.309027 
L 299.081559 190.05 
L 315.017582 190.05 
L 316.466312 178.309027 
L 317.915041 178.309027 
L 319.363771 190.05 
L 320.8125 190.05 
L 323.709959 183.224894 
L 326.607418 183.224894 
L 328.056147 185.499419 
L 330.953606 185.499419 
L 332.402335 190.05 
L 339.645982 190.05 
L 341.094712 169.297944 
L 342.543441 169.297944 
L 343.99217 190.05 
L 372.966758 190.05 
L 374.415488 130.945616 
L 378.761676 130.945616 
L 380.210405 182.006637 
L 381.659135 190.05 
L 393.24897 190.05 
L 394.697699 181.980436 
L 399.043887 181.980436 
L 400.492617 190.05 
L 436.710852 190.05 
L 438.159581 181.302458 
L 439.60831 181.302458 
L 441.05704 190.05 
L 454.095604 190.05 
L 455.544334 181.951366 
L 456.993063 181.951366 
L 458.441793 190.05 
L 474.377816 190.05 
L 475.826545 157.423097 
L 480.172734 157.423097 
L 481.621463 190.05 
L 532.326992 190.05 
L 533.775721 175.012275 
L 541.019368 175.012275 
L 542.468098 190.05 
L 575.788874 190.05 
L 577.237603 173.664352 
L 580.135062 173.664352 
L 581.583791 190.05 
L 584.48125 190.05 
L 584.48125 190.05 
" clip-path="url(#p6a24513eb9)" style="fill: none; stroke: #ee7733; stroke-width: 1.5; stroke-linecap: square"/>
   </g>
   <g id="patch_3">
    <path d="M 57.14375 190.05 
L 57.14375 33.18 
" style="fill: none; stroke: #000000; stroke-width: 0.8; stroke-linejoin: miter; stroke-linecap: square"/>
   </g>
   <g id="patch_4">
    <path d="M 584.48125 190.05 
L 584.48125 33.18 
" style="fill: none; stroke: #000000; stroke-width: 0.8; stroke-linejoin: miter; stroke-linecap: square"/>
   </g>
   <g id="patch_5">
    <path d="M 57.14375 190.05 
L 584.48125 190.05 
" style="fill: none; stroke: #000000; stroke-width: 0.8; stroke-linejoin: miter; stroke-linecap: square"/>
   </g>
   <g id="patch_6">
    <path d="M 57.14375 33.18 
L 584.48125 33.18 
" style="fill: none; stroke: #000000; stroke-width: 0.8; stroke-linejoin: miter; stroke-linecap: square"/>
   </g>
   <g id="patch_7">
    <path d="M 117.18452 108.206017 
Q 95.284987 120.205465 74.365948 131.667669 
" style="fill: none; stroke: #000000; stroke-linecap: round"/>
    <path d="M 78.834922 131.499529 
L 74.365948 131.667669 
L 76.91282 127.991606 
" style="fill: none; stroke: #000000; stroke-linecap: round"/>
   </g>
   <g id="text_19">
    <!-- Reykjavk, Iceland -->
    <g transform="translate(86.631044 103.16621) scale(0.1 -0.1)">
     <defs>
      <path id="DejaVuSans-52" d="M 2841 2188 
Q 3044 2119 3236 1894 
Q 3428 1669 3622 1275 
L 4263 0 
L 3584 0 
L 2988 1197 
Q 2756 1666 2539 1819 
Q 2322 1972 1947 1972 
L 1259 1972 
L 1259 0 
L 628 0 
L 628 4666 
L 2053 4666 
Q 2853 4666 3247 4331 
Q 3641 3997 3641 3322 
Q 3641 2881 3436 2590 
Q 3231 2300 2841 2188 
z
M 1259 4147 
L 1259 2491 
L 2053 2491 
Q 2509 2491 2742 2702 
Q 2975 2913 2975 3322 
Q 2975 3731 2742 3939 
Q 2509 4147 2053 4147 
L 1259 4147 
z
" transform="scale(0.015625)"/>
      <path id="DejaVuSans-6b" d="M 581 4863 
L 1159 4863 
L 1159 1991 
L 2875 3500 
L 3609 3500 
L 1753 1863 
L 3688 0 
L 2938 0 
L 1159 1709 
L 1159 0 
L 581 0 
L 581 4863 
z
" transform="scale(0.015625)"/>
      <path id="DejaVuSans-6a" d="M 603 3500 
L 1178 3500 
L 1178 -63 
Q 1178 -731 923 -1031 
Q 669 -1331 103 -1331 
L -116 -1331 
L -116 -844 
L 38 -844 
Q 366 -844 484 -692 
Q 603 -541 603 -63 
L 603 3500 
z
M 603 4863 
L 1178 4863 
L 1178 4134 
L 603 4134 
L 603 4863 
z
" transform="scale(0.015625)"/>
      <path id="DejaVuSans-ed" d="M 1322 5119 
L 1944 5119 
L 926 3944 
L 447 3944 
L 1322 5119 
z
M 603 3500 
L 1178 3500 
L 1178 0 
L 603 0 
L 603 3500 
z
M 891 3584 
L 891 3584 
z
" transform="scale(0.015625)"/>
      <path id="DejaVuSans-2c" d="M 750 794 
L 1409 794 
L 1409 256 
L 897 -744 
L 494 -744 
L 750 256 
L 750 794 
z
" transform="scale(0.015625)"/>
      <path id="DejaVuSans-49" d="M 628 4666 
L 1259 4666 
L 1259 0 
L 628 0 
L 628 4666 
z
" transform="scale(0.015625)"/>
      <path id="DejaVuSans-64" d="M 2906 2969 
L 2906 4863 
L 3481 4863 
L 3481 0 
L 2906 0 
L 2906 525 
Q 2725 213 2448 61 
Q 2172 -91 1784 -91 
Q 1150 -91 751 415 
Q 353 922 353 1747 
Q 353 2572 751 3078 
Q 1150 3584 1784 3584 
Q 2172 3584 2448 3432 
Q 2725 3281 2906 2969 
z
M 947 1747 
Q 947 1113 1208 752 
Q 1469 391 1925 391 
Q 2381 391 2643 752 
Q 2906 1113 2906 1747 
Q 2906 2381 2643 2742 
Q 2381 3103 1925 3103 
Q 1469 3103 1208 2742 
Q 947 2381 947 1747 
z
" transform="scale(0.015625)"/>
     </defs>
     <use xlink:href="#DejaVuSans-52"/>
     <use xlink:href="#DejaVuSans-65" transform="translate(64.982422 0)"/>
     <use xlink:href="#DejaVuSans-79" transform="translate(126.505859 0)"/>
     <use xlink:href="#DejaVuSans-6b" transform="translate(185.685547 0)"/>
     <use xlink:href="#DejaVuSans-6a" transform="translate(243.595703 0)"/>
     <use xlink:href="#DejaVuSans-61" transform="translate(271.378906 0)"/>
     <use xlink:href="#DejaVuSans-76" transform="translate(332.658203 0)"/>
     <use xlink:href="#DejaVuSans-ed" transform="translate(391.837891 0)"/>
     <use xlink:href="#DejaVuSans-6b" transform="translate(419.621094 0)"/>
     <use xlink:href="#DejaVuSans-2c" transform="translate(477.53125 0)"/>
     <use xlink:href="#DejaVuSans-20" transform="translate(509.318359 0)"/>
     <use xlink:href="#DejaVuSans-49" transform="translate(541.105469 0)"/>
     <use xlink:href="#DejaVuSans-63" transform="translate(570.597656 0)"/>
     <use xlink:href="#DejaVuSans-65" transform="translate(625.578125 0)"/>
     <use xlink:href="#DejaVuSans-6c" transform="translate(687.101562 0)"/>
     <use xlink:href="#DejaVuSans-61" transform="translate(714.884766 0)"/>
     <use xlink:href="#DejaVuSans-6e" transform="translate(776.164062 0)"/>
     <use xlink:href="#DejaVuSans-64" transform="translate(839.542969 0)"/>
    </g>
   </g>
   <g id="patch_8">
    <path d="M 265.102762 22.697145 
Q 248.855877 34.482299 233.514 45.610978 
" style="fill: none; stroke: #000000; stroke-linecap: round"/>
    <path d="M 237.926196 44.881232 
L 233.514 45.610978 
L 235.577521 41.643374 
" style="fill: none; stroke: #000000; stroke-linecap: round"/>
   </g>
   <g id="text_20">
    <!-- Naha, Japan -->
    <g transform="translate(245.991277 17.440909) scale(0.1 -0.1)">
     <defs>
      <path id="DejaVuSans-68" d="M 3513 2113 
L 3513 0 
L 2938 0 
L 2938 2094 
Q 2938 2591 2744 2837 
Q 2550 3084 2163 3084 
Q 1697 3084 1428 2787 
Q 1159 2491 1159 1978 
L 1159 0 
L 581 0 
L 581 4863 
L 1159 4863 
L 1159 2956 
Q 1366 3272 1645 3428 
Q 1925 3584 2291 3584 
Q 2894 3584 3203 3211 
Q 3513 2838 3513 2113 
z
" transform="scale(0.015625)"/>
     </defs>
     <use xlink:href="#DejaVuSans-4e"/>
     <use xlink:href="#DejaVuSans-61" transform="translate(74.804688 0)"/>
     <use xlink:href="#DejaVuSans-68" transform="translate(136.083984 0)"/>
     <use xlink:href="#DejaVuSans-61" transform="translate(199.462891 0)"/>
     <use xlink:href="#DejaVuSans-2c" transform="translate(260.742188 0)"/>
     <use xlink:href="#DejaVuSans-20" transform="translate(292.529297 0)"/>
     <use xlink:href="#DejaVuSans-4a" transform="translate(324.316406 0)"/>
     <use xlink:href="#DejaVuSans-61" transform="translate(353.808594 0)"/>
     <use xlink:href="#DejaVuSans-70" transform="translate(415.087891 0)"/>
     <use xlink:href="#DejaVuSans-61" transform="translate(478.564453 0)"/>
     <use xlink:href="#DejaVuSans-6e" transform="translate(539.84375 0)"/>
    </g>
   </g>
   <g id="patch_9">
    <path d="M 425.626506 105.967719 
Q 403.076525 117.98635 381.51319 129.479121 
" style="fill: none; stroke: #000000; stroke-linecap: round"/>
    <path d="M 385.983811 129.362713 
L 381.51319 129.479121 
L 384.102436 125.83278 
" style="fill: none; stroke: #000000; stroke-linecap: round"/>
   </g>
   <g id="text_21">
    <!-- Anchorage, Alaska -->
    <g transform="translate(393.761676 100.945616) scale(0.1 -0.1)">
     <use xlink:href="#DejaVuSans-41"/>
     <use xlink:href="#DejaVuSans-6e" transform="translate(68.408203 0)"/>
     <use xlink:href="#DejaVuSans-63" transform="translate(131.787109 0)"/>
     <use xlink:href="#DejaVuSans-68" transform="translate(186.767578 0)"/>
     <use xlink:href="#DejaVuSans-6f" transform="translate(250.146484 0)"/>
     <use xlink:href="#DejaVuSans-72" transform="translate(311.328125 0)"/>
     <use xlink:href="#DejaVuSans-61" transform="translate(352.441406 0)"/>
     <use xlink:href="#DejaVuSans-67" transform="translate(413.720703 0)"/>
     <use xlink:href="#DejaVuSans-65" transform="translate(477.197266 0)"/>
     <use xlink:href="#DejaVuSans-2c" transform="translate(538.720703 0)"/>
     <use xlink:href="#DejaVuSans-20" transform="translate(570.507812 0)"/>
     <use xlink:href="#DejaVuSans-41" transform="translate(602.294922 0)"/>
     <use xlink:href="#DejaVuSans-6c" transform="translate(670.703125 0)"/>
     <use xlink:href="#DejaVuSans-61" transform="translate(698.486328 0)"/>
     <use xlink:href="#DejaVuSans-73" transform="translate(759.765625 0)"/>
     <use xlink:href="#DejaVuSans-6b" transform="translate(811.865234 0)"/>
     <use xlink:href="#DejaVuSans-61" transform="translate(868.025391 0)"/>
    </g>
   </g>
  </g>
  <g id="axes_2">
   <g id="matplotlib.axis_3">
    <g id="ytick_18">
     <g id="line2d_72">
      <defs>
       <path id="m0038f6af06" d="M 0 0 
L 3.5 0 
" style="stroke: #000000; stroke-width: 0.8"/>
      </defs>
      <g>
       <use xlink:href="#m0038f6af06" x="584.48125" y="190.05" style="stroke: #000000; stroke-width: 0.8"/>
      </g>
     </g>
     <g id="text_22">
      <!-- 0 -->
      <g transform="translate(591.48125 193.849219) scale(0.1 -0.1)">
       <use xlink:href="#DejaVuSans-30"/>
      </g>
     </g>
    </g>
    <g id="ytick_19">
     <g id="line2d_73">
      <g>
       <use xlink:href="#m0038f6af06" x="584.48125" y="166.282015" style="stroke: #000000; stroke-width: 0.8"/>
      </g>
     </g>
     <g id="text_23">
      <!-- 2000 -->
      <g transform="translate(591.48125 170.081234) scale(0.1 -0.1)">
       <use xlink:href="#DejaVuSans-32"/>
       <use xlink:href="#DejaVuSans-30" transform="translate(63.623047 0)"/>
       <use xlink:href="#DejaVuSans-30" transform="translate(127.246094 0)"/>
       <use xlink:href="#DejaVuSans-30" transform="translate(190.869141 0)"/>
      </g>
     </g>
    </g>
    <g id="ytick_20">
     <g id="line2d_74">
      <g>
       <use xlink:href="#m0038f6af06" x="584.48125" y="142.514031" style="stroke: #000000; stroke-width: 0.8"/>
      </g>
     </g>
     <g id="text_24">
      <!-- 4000 -->
      <g transform="translate(591.48125 146.313249) scale(0.1 -0.1)">
       <use xlink:href="#DejaVuSans-34"/>
       <use xlink:href="#DejaVuSans-30" transform="translate(63.623047 0)"/>
       <use xlink:href="#DejaVuSans-30" transform="translate(127.246094 0)"/>
       <use xlink:href="#DejaVuSans-30" transform="translate(190.869141 0)"/>
      </g>
     </g>
    </g>
    <g id="ytick_21">
     <g id="line2d_75">
      <g>
       <use xlink:href="#m0038f6af06" x="584.48125" y="118.746046" style="stroke: #000000; stroke-width: 0.8"/>
      </g>
     </g>
     <g id="text_25">
      <!-- 6000 -->
      <g transform="translate(591.48125 122.545265) scale(0.1 -0.1)">
       <use xlink:href="#DejaVuSans-36"/>
       <use xlink:href="#DejaVuSans-30" transform="translate(63.623047 0)"/>
       <use xlink:href="#DejaVuSans-30" transform="translate(127.246094 0)"/>
       <use xlink:href="#DejaVuSans-30" transform="translate(190.869141 0)"/>
      </g>
     </g>
    </g>
    <g id="ytick_22">
     <g id="line2d_76">
      <g>
       <use xlink:href="#m0038f6af06" x="584.48125" y="94.978061" style="stroke: #000000; stroke-width: 0.8"/>
      </g>
     </g>
     <g id="text_26">
      <!-- 8000 -->
      <g transform="translate(591.48125 98.77728) scale(0.1 -0.1)">
       <use xlink:href="#DejaVuSans-38"/>
       <use xlink:href="#DejaVuSans-30" transform="translate(63.623047 0)"/>
       <use xlink:href="#DejaVuSans-30" transform="translate(127.246094 0)"/>
       <use xlink:href="#DejaVuSans-30" transform="translate(190.869141 0)"/>
      </g>
     </g>
    </g>
    <g id="ytick_23">
     <g id="line2d_77">
      <g>
       <use xlink:href="#m0038f6af06" x="584.48125" y="71.210076" style="stroke: #000000; stroke-width: 0.8"/>
      </g>
     </g>
     <g id="text_27">
      <!-- 10000 -->
      <g transform="translate(591.48125 75.009295) scale(0.1 -0.1)">
       <defs>
        <path id="DejaVuSans-31" d="M 794 531 
L 1825 531 
L 1825 4091 
L 703 3866 
L 703 4441 
L 1819 4666 
L 2450 4666 
L 2450 531 
L 3481 531 
L 3481 0 
L 794 0 
L 794 531 
z
" transform="scale(0.015625)"/>
       </defs>
       <use xlink:href="#DejaVuSans-31"/>
       <use xlink:href="#DejaVuSans-30" transform="translate(63.623047 0)"/>
       <use xlink:href="#DejaVuSans-30" transform="translate(127.246094 0)"/>
       <use xlink:href="#DejaVuSans-30" transform="translate(190.869141 0)"/>
       <use xlink:href="#DejaVuSans-30" transform="translate(254.492188 0)"/>
      </g>
     </g>
    </g>
    <g id="ytick_24">
     <g id="line2d_78">
      <g>
       <use xlink:href="#m0038f6af06" x="584.48125" y="47.442092" style="stroke: #000000; stroke-width: 0.8"/>
      </g>
     </g>
     <g id="text_28">
      <!-- 12000 -->
      <g transform="translate(591.48125 51.24131) scale(0.1 -0.1)">
       <use xlink:href="#DejaVuSans-31"/>
       <use xlink:href="#DejaVuSans-32" transform="translate(63.623047 0)"/>
       <use xlink:href="#DejaVuSans-30" transform="translate(127.246094 0)"/>
       <use xlink:href="#DejaVuSans-30" transform="translate(190.869141 0)"/>
       <use xlink:href="#DejaVuSans-30" transform="translate(254.492188 0)"/>
      </g>
     </g>
    </g>
    <g id="text_29">
     <!-- Kilometers from Home -->
     <g transform="translate(634.892187 167.9525) rotate(-90) scale(0.1 -0.1)">
      <defs>
       <path id="DejaVuSans-4b" d="M 628 4666 
L 1259 4666 
L 1259 2694 
L 3353 4666 
L 4166 4666 
L 1850 2491 
L 4331 0 
L 3500 0 
L 1259 2247 
L 1259 0 
L 628 0 
L 628 4666 
z
" transform="scale(0.015625)"/>
      </defs>
      <use xlink:href="#DejaVuSans-4b"/>
      <use xlink:href="#DejaVuSans-69" transform="translate(65.576172 0)"/>
      <use xlink:href="#DejaVuSans-6c" transform="translate(93.359375 0)"/>
      <use xlink:href="#DejaVuSans-6f" transform="translate(121.142578 0)"/>
      <use xlink:href="#DejaVuSans-6d" transform="translate(182.324219 0)"/>
      <use xlink:href="#DejaVuSans-65" transform="translate(279.736328 0)"/>
      <use xlink:href="#DejaVuSans-74" transform="translate(341.259766 0)"/>
      <use xlink:href="#DejaVuSans-65" transform="translate(380.46875 0)"/>
      <use xlink:href="#DejaVuSans-72" transform="translate(441.992188 0)"/>
      <use xlink:href="#DejaVuSans-73" transform="translate(483.105469 0)"/>
      <use xlink:href="#DejaVuSans-20" transform="translate(535.205078 0)"/>
      <use xlink:href="#DejaVuSans-66" transform="translate(566.992188 0)"/>
      <use xlink:href="#DejaVuSans-72" transform="translate(602.197266 0)"/>
      <use xlink:href="#DejaVuSans-6f" transform="translate(641.060547 0)"/>
      <use xlink:href="#DejaVuSans-6d" transform="translate(702.242188 0)"/>
      <use xlink:href="#DejaVuSans-20" transform="translate(799.654297 0)"/>
      <use xlink:href="#DejaVuSans-48" transform="translate(831.441406 0)"/>
      <use xlink:href="#DejaVuSans-6f" transform="translate(906.636719 0)"/>
      <use xlink:href="#DejaVuSans-6d" transform="translate(967.818359 0)"/>
      <use xlink:href="#DejaVuSans-65" transform="translate(1065.230469 0)"/>
     </g>
    </g>
   </g>
   <g id="patch_10">
    <path d="M 57.14375 190.05 
L 57.14375 33.18 
" style="fill: none; stroke: #000000; stroke-width: 0.8; stroke-linejoin: miter; stroke-linecap: square"/>
   </g>
   <g id="patch_11">
    <path d="M 584.48125 190.05 
L 584.48125 33.18 
" style="fill: none; stroke: #000000; stroke-width: 0.8; stroke-linejoin: miter; stroke-linecap: square"/>
   </g>
   <g id="patch_12">
    <path d="M 57.14375 190.05 
L 584.48125 190.05 
" style="fill: none; stroke: #000000; stroke-width: 0.8; stroke-linejoin: miter; stroke-linecap: square"/>
   </g>
   <g id="patch_13">
    <path d="M 57.14375 33.18 
L 584.48125 33.18 
" style="fill: none; stroke: #000000; stroke-width: 0.8; stroke-linejoin: miter; stroke-linecap: square"/>
   </g>
  </g>
 </g>
 <defs>
  <clipPath id="p6a24513eb9">
   <rect x="57.14375" y="33.18" width="527.3375" height="156.87"/>
  </clipPath>
 </defs>
</svg>
