<?xml version="1.0" encoding="UTF-8"?><svg xmlns="http://www.w3.org/2000/svg" xmlns:xlink="http://www.w3.org/1999/xlink" fill-opacity="1" color-rendering="auto" color-interpolation="auto" text-rendering="auto" stroke="black" stroke-linecap="square" width="331" stroke-miterlimit="10" shape-rendering="auto" stroke-opacity="1" fill="black" stroke-dasharray="none" font-weight="normal" stroke-width="1" height="364" font-family="'Dialog'" font-style="normal" stroke-linejoin="miter" font-size="12px" stroke-dashoffset="0" image-rendering="auto">
  <!--Generated by ySVG 2.6-->
  <defs id="genericDefs"/>
  <g>
    <defs id="defs1">
      <clipPath clipPathUnits="userSpaceOnUse" id="clipPath1">
        <path d="M0 0 L331 0 L331 364 L0 364 L0 0 Z"/>
      </clipPath>
      <clipPath clipPathUnits="userSpaceOnUse" id="clipPath2">
        <path d="M-116 -65 L215 -65 L215 299 L-116 299 L-116 -65 Z"/>
      </clipPath>
      <clipPath clipPathUnits="userSpaceOnUse" id="clipPath3">
        <path d="M55 -65.9805 L55 265.0195 L-309 265.0195 L-309 -65.9805 L55 -65.9805 Z"/>
      </clipPath>
      <clipPath clipPathUnits="userSpaceOnUse" id="clipPath4">
        <path d="M0 -10 L-12 -10 L-12 10 L0 10 Z"/>
      </clipPath>
      <clipPath clipPathUnits="userSpaceOnUse" id="clipPath5">
        <path d="M-115.9537 -127 L215.0463 -127 L215.0463 237 L-115.9537 237 L-115.9537 -127 Z"/>
      </clipPath>
      <clipPath clipPathUnits="userSpaceOnUse" id="clipPath6">
        <path d="M145 -166 L145 165 L-219 165 L-219 -166 L145 -166 Z"/>
      </clipPath>
      <clipPath clipPathUnits="userSpaceOnUse" id="clipPath7">
        <path d="M-194.9512 166 L-194.9512 -165 L169.0488 -165 L169.0488 166 L-194.9512 166 Z"/>
      </clipPath>
      <clipPath clipPathUnits="userSpaceOnUse" id="clipPath8">
        <path d="M-115.9902 -215 L215.0098 -215 L215.0098 149 L-115.9902 149 L-115.9902 -215 Z"/>
      </clipPath>
      <clipPath clipPathUnits="userSpaceOnUse" id="clipPath9">
        <path d="M-12 -10 L-12 10 L0 10 L0 -10 Z"/>
      </clipPath>
      <clipPath clipPathUnits="userSpaceOnUse" id="clipPath10">
        <path d="M-284.9902 65.9805 L-284.9902 -265.0195 L79.0098 -265.0195 L79.0098 65.9805 L-284.9902 65.9805 Z"/>
      </clipPath>
      <clipPath clipPathUnits="userSpaceOnUse" id="clipPath11">
        <path d="M216.0098 215 L-114.9902 215 L-114.9902 -149 L216.0098 -149 L216.0098 215 Z"/>
      </clipPath>
      <clipPath clipPathUnits="userSpaceOnUse" id="clipPath12">
        <path d="M0 10 L0 -10 L-12 -10 L-12 10 Z"/>
      </clipPath>
      <clipPath clipPathUnits="userSpaceOnUse" id="clipPath13">
        <path d="M-284.9902 266 L-284.9902 -65 L79.0098 -65 L79.0098 266 L-284.9902 266 Z"/>
      </clipPath>
      <clipPath clipPathUnits="userSpaceOnUse" id="clipPath14">
        <path d="M298.8938 -275.5672 L332.0926 53.7637 L-30.0719 90.2723 L-63.2707 -239.0586 L298.8938 -275.5672 Z"/>
      </clipPath>
      <clipPath clipPathUnits="userSpaceOnUse" id="clipPath15">
        <path d="M289.432 -323.4848 L327.7414 5.2908 L-33.8124 47.4196 L-72.1218 -281.356 L289.432 -323.4848 Z"/>
      </clipPath>
      <clipPath clipPathUnits="userSpaceOnUse" id="clipPath16">
        <path d="M-0 -10 L-12 -10 L-12 10 L0 10 L-0 -10 Z"/>
      </clipPath>
      <clipPath clipPathUnits="userSpaceOnUse" id="clipPath17">
        <path d="M55.0098 -266 L55.0098 65 L-308.9902 65 L-308.9902 -266 L55.0098 -266 Z"/>
      </clipPath>
      <clipPath clipPathUnits="userSpaceOnUse" id="clipPath18">
        <path d="M216.0098 125 L-114.9902 125 L-114.9902 -239 L216.0098 -239 L216.0098 125 Z"/>
      </clipPath>
    </defs>
    <g fill="white" text-rendering="geometricPrecision" shape-rendering="geometricPrecision" transform="translate(116,65)" stroke="white">
      <rect x="-116" width="331" height="364" y="-65" clip-path="url(#clipPath2)" stroke="none"/>
    </g>
    <g fill="rgb(255,204,0)" text-rendering="geometricPrecision" shape-rendering="geometricPrecision" transform="matrix(1,0,0,1,116,65)" stroke="rgb(255,204,0)">
      <rect x="-100.0195" y="-50" clip-path="url(#clipPath2)" width="100" rx="4" ry="4" height="40" stroke="none"/>
    </g>
    <g text-rendering="geometricPrecision" stroke-miterlimit="1.45" shape-rendering="geometricPrecision" transform="matrix(1,0,0,1,116,65)" stroke-linecap="butt">
      <rect x="-100.0195" y="-50" clip-path="url(#clipPath2)" fill="none" width="100" rx="4" ry="4" height="40"/>
      <text x="-64.0234" xml:space="preserve" y="-25.2861" clip-path="url(#clipPath2)" font-family="sans-serif" stroke="none">stays</text>
    </g>
    <g fill="rgb(255,204,0)" text-rendering="geometricPrecision" shape-rendering="geometricPrecision" transform="matrix(1,0,0,1,116,65)" stroke="rgb(255,204,0)">
      <rect x="0" y="40" clip-path="url(#clipPath2)" width="100" rx="4" ry="4" height="40" stroke="none"/>
    </g>
    <g text-rendering="geometricPrecision" stroke-miterlimit="1.45" shape-rendering="geometricPrecision" transform="matrix(1,0,0,1,116,65)" stroke-linecap="butt">
      <rect x="0" y="40" clip-path="url(#clipPath2)" fill="none" width="100" rx="4" ry="4" height="40"/>
      <text x="11.9785" xml:space="preserve" y="64.7139" clip-path="url(#clipPath2)" font-family="sans-serif" stroke="none">stay_locations</text>
    </g>
    <g fill="rgb(255,204,0)" text-rendering="geometricPrecision" shape-rendering="geometricPrecision" transform="matrix(1,0,0,1,116,65)" stroke="rgb(255,204,0)">
      <rect x="0" y="130" clip-path="url(#clipPath2)" width="100" rx="4" ry="4" height="40" stroke="none"/>
    </g>
    <g text-rendering="geometricPrecision" stroke-miterlimit="1.45" shape-rendering="geometricPrecision" transform="matrix(1,0,0,1,116,65)" stroke-linecap="butt">
      <rect x="0" y="130" clip-path="url(#clipPath2)" fill="none" width="100" rx="4" ry="4" height="40"/>
      <text x="36.3301" xml:space="preserve" y="154.7139" clip-path="url(#clipPath2)" font-family="sans-serif" stroke="none">cities</text>
    </g>
    <g fill="rgb(255,204,0)" text-rendering="geometricPrecision" shape-rendering="geometricPrecision" transform="matrix(1,0,0,1,116,65)" stroke="rgb(255,204,0)">
      <rect x="-100.0195" y="220" clip-path="url(#clipPath2)" width="100" rx="4" ry="4" height="40" stroke="none"/>
    </g>
    <g text-rendering="geometricPrecision" stroke-miterlimit="1.45" shape-rendering="geometricPrecision" transform="matrix(1,0,0,1,116,65)" stroke-linecap="butt">
      <rect x="-100.0195" y="220" clip-path="url(#clipPath2)" fill="none" width="100" rx="4" ry="4" height="40"/>
      <text x="-68.3564" xml:space="preserve" y="244.7139" clip-path="url(#clipPath2)" font-family="sans-serif" stroke="none">metros</text>
    </g>
    <g fill="rgb(255,204,0)" text-rendering="geometricPrecision" shape-rendering="geometricPrecision" transform="matrix(1,0,0,1,116,65)" stroke="rgb(255,204,0)">
      <rect x="100" y="220" clip-path="url(#clipPath2)" width="100" rx="4" ry="4" height="40" stroke="none"/>
    </g>
    <g text-rendering="geometricPrecision" stroke-miterlimit="1.45" shape-rendering="geometricPrecision" transform="matrix(1,0,0,1,116,65)" stroke-linecap="butt">
      <rect x="100" y="220" clip-path="url(#clipPath2)" fill="none" width="100" rx="4" ry="4" height="40"/>
      <text x="130.3213" xml:space="preserve" y="244.7139" clip-path="url(#clipPath2)" font-family="sans-serif" stroke="none">regions</text>
    </g>
    <g fill="rgb(255,204,0)" text-rendering="geometricPrecision" shape-rendering="geometricPrecision" transform="matrix(1,0,0,1,116,65)" stroke="rgb(255,204,0)">
      <rect x="100" y="-50" clip-path="url(#clipPath2)" width="100" rx="4" ry="4" height="40" stroke="none"/>
    </g>
    <g text-rendering="geometricPrecision" stroke-miterlimit="1.45" shape-rendering="geometricPrecision" transform="matrix(1,0,0,1,116,65)" stroke-linecap="butt">
      <rect x="100" y="-50" clip-path="url(#clipPath2)" fill="none" width="100" rx="4" ry="4" height="40"/>
      <text x="131.9912" xml:space="preserve" y="-25.2861" clip-path="url(#clipPath2)" font-family="sans-serif" stroke="none">homes</text>
      <path fill="none" d="M-50.0195 -1 L-50.0195 62 L-0.0463 62" clip-path="url(#clipPath2)"/>
      <circle transform="matrix(0,-1,1,0,-50.0195,-10)" clip-path="url(#clipPath3)" fill="white" r="5" cx="-15" cy="0" stroke="none"/>
      <circle fill="none" r="5" clip-path="url(#clipPath3)" cx="-15" transform="matrix(0,-1,1,0,-50.0195,-10)" cy="0"/>
      <line transform="matrix(0,-1,1,0,-50.0195,-10)" clip-path="url(#clipPath4)" fill="none" x1="-10" x2="2" y1="0" y2="8"/>
      <line transform="matrix(0,-1,1,0,-50.0195,-10)" clip-path="url(#clipPath4)" fill="none" x1="-10" x2="2" y1="0" y2="0"/>
      <line transform="matrix(0,-1,1,0,-50.0195,-10)" clip-path="url(#clipPath4)" fill="none" x1="-10" x2="2" y1="0" y2="-8"/>
    </g>
    <g text-rendering="geometricPrecision" stroke-miterlimit="1.45" shape-rendering="geometricPrecision" transform="matrix(1,0,0,1,115.9537,127)" stroke-linecap="butt">
      <line y2="8" fill="none" x1="-10" clip-path="url(#clipPath5)" x2="-10" y1="-8"/>
    </g>
    <g text-rendering="geometricPrecision" stroke-miterlimit="1.45" shape-rendering="geometricPrecision" transform="matrix(1,0,0,1,116,65)" stroke-linecap="butt">
      <path fill="none" d="M50 89 L50 129.9512" clip-path="url(#clipPath2)"/>
      <circle transform="matrix(0,-1,1,0,50,80)" clip-path="url(#clipPath6)" fill="white" r="5" cx="-15" cy="0" stroke="none"/>
      <circle fill="none" r="5" clip-path="url(#clipPath6)" cx="-15" transform="matrix(0,-1,1,0,50,80)" cy="0"/>
      <line transform="matrix(0,-1,1,0,50,80)" clip-path="url(#clipPath4)" fill="none" x1="-10" x2="2" y1="0" y2="8"/>
      <line transform="matrix(0,-1,1,0,50,80)" clip-path="url(#clipPath4)" fill="none" x1="-10" x2="2" y1="0" y2="0"/>
      <line transform="matrix(0,-1,1,0,50,80)" clip-path="url(#clipPath4)" fill="none" x1="-10" x2="2" y1="0" y2="-8"/>
    </g>
    <g stroke-linecap="butt" transform="matrix(0,1,-1,0,166,194.9512)" fill="white" text-rendering="geometricPrecision" shape-rendering="geometricPrecision" stroke="white" stroke-miterlimit="1.45">
      <circle r="5" clip-path="url(#clipPath7)" cx="-15" cy="0" stroke="none"/>
      <circle fill="none" r="5" clip-path="url(#clipPath7)" cx="-15" cy="0" stroke="black"/>
      <line clip-path="url(#clipPath7)" fill="none" x1="-6" x2="-6" y1="-8" y2="8" stroke="black"/>
    </g>
    <g text-rendering="geometricPrecision" stroke-miterlimit="1.45" shape-rendering="geometricPrecision" transform="matrix(1,0,0,1,116,65)" stroke-linecap="butt">
      <path fill="none" d="M-9.0098 150 L-50.0195 150 L-50.0195 219.9902" clip-path="url(#clipPath2)"/>
      <circle transform="matrix(1,0,0,1,-0.0098,150)" clip-path="url(#clipPath8)" fill="white" r="5" cx="-15" cy="0" stroke="none"/>
      <circle fill="none" r="5" clip-path="url(#clipPath8)" cx="-15" transform="matrix(1,0,0,1,-0.0098,150)" cy="0"/>
      <line transform="matrix(1,0,0,1,-0.0098,150)" clip-path="url(#clipPath9)" fill="none" x1="-10" x2="2" y1="0" y2="8"/>
      <line transform="matrix(1,0,0,1,-0.0098,150)" clip-path="url(#clipPath9)" fill="none" x1="-10" x2="2" y1="0" y2="0"/>
      <line transform="matrix(1,0,0,1,-0.0098,150)" clip-path="url(#clipPath9)" fill="none" x1="-10" x2="2" y1="0" y2="-8"/>
    </g>
    <g stroke-linecap="butt" transform="matrix(0,1,-1,0,65.9805,284.9902)" fill="white" text-rendering="geometricPrecision" shape-rendering="geometricPrecision" stroke="white" stroke-miterlimit="1.45">
      <circle r="5" clip-path="url(#clipPath10)" cx="-15" cy="0" stroke="none"/>
      <circle fill="none" r="5" clip-path="url(#clipPath10)" cx="-15" cy="0" stroke="black"/>
      <line clip-path="url(#clipPath10)" fill="none" x1="-6" x2="-6" y1="-8" y2="8" stroke="black"/>
    </g>
    <g text-rendering="geometricPrecision" stroke-miterlimit="1.45" shape-rendering="geometricPrecision" transform="matrix(1,0,0,1,116,65)" stroke-linecap="butt">
      <path fill="none" d="M109.0098 150 L150 150 L150 219.9902" clip-path="url(#clipPath2)"/>
      <circle transform="matrix(-1,0,0,-1,100.0098,150)" clip-path="url(#clipPath11)" fill="white" r="5" cx="-15" cy="0" stroke="none"/>
      <circle fill="none" r="5" clip-path="url(#clipPath11)" cx="-15" transform="matrix(-1,0,0,-1,100.0098,150)" cy="0"/>
      <line transform="matrix(-1,0,0,-1,100.0098,150)" clip-path="url(#clipPath12)" fill="none" x1="-10" x2="2" y1="0" y2="8"/>
      <line transform="matrix(-1,0,0,-1,100.0098,150)" clip-path="url(#clipPath12)" fill="none" x1="-10" x2="2" y1="0" y2="0"/>
      <line transform="matrix(-1,0,0,-1,100.0098,150)" clip-path="url(#clipPath12)" fill="none" x1="-10" x2="2" y1="0" y2="-8"/>
    </g>
    <g stroke-linecap="butt" transform="matrix(0,1,-1,0,266,284.9902)" fill="white" text-rendering="geometricPrecision" shape-rendering="geometricPrecision" stroke="white" stroke-miterlimit="1.45">
      <circle r="5" clip-path="url(#clipPath13)" cx="-15" cy="0" stroke="none"/>
      <circle fill="none" r="5" clip-path="url(#clipPath13)" cx="-15" cy="0" stroke="black"/>
      <line clip-path="url(#clipPath13)" fill="none" x1="-6" x2="-6" y1="-8" y2="8" stroke="black"/>
    </g>
    <g text-rendering="geometricPrecision" stroke-miterlimit="1.45" shape-rendering="geometricPrecision" transform="matrix(1,0,0,1,116,65)" stroke-linecap="butt">
      <path fill="none" d="M128.199 260.0256 L128 262 L128.447 266.4338 L129.7289 270.5634 L131.7572 274.3004 L134.4436 277.5563 L137.6996 280.2427 L141.4366 282.2711 L145.5662 283.553 L150 284 L154.4338 283.553 L158.5634 282.2711 L162.3004 280.2427 L165.5564 277.5563 L168.2428 274.3004 L170.2711 270.5634 L170.767 268.966 L170.7709 268.8661" clip-path="url(#clipPath2)"/>
      <line transform="matrix(0.1003,-0.995,0.995,0.1003,128.199,260.0256)" clip-path="url(#clipPath14)" fill="none" x1="-10" x2="-10" y1="-8" y2="8"/>
    </g>
    <g stroke-linecap="butt" transform="matrix(0.1157,-0.9933,0.9933,0.1157,287.8125,324.9265)" fill="white" text-rendering="geometricPrecision" shape-rendering="geometricPrecision" stroke="white" stroke-miterlimit="1.45">
      <circle r="5" clip-path="url(#clipPath15)" cx="-15" cy="0" stroke="none"/>
      <circle fill="none" r="5" clip-path="url(#clipPath15)" cx="-15" cy="0" stroke="black"/>
      <line clip-path="url(#clipPath16)" fill="none" x1="-10" x2="2" y1="0" y2="8" stroke="black"/>
      <line clip-path="url(#clipPath16)" fill="none" x1="-10" x2="2" y1="0" y2="0" stroke="black"/>
      <line clip-path="url(#clipPath16)" fill="none" x1="-10" x2="2" y1="0" y2="-8" stroke="black"/>
    </g>
    <g text-rendering="geometricPrecision" stroke-miterlimit="1.45" shape-rendering="geometricPrecision" transform="matrix(1,0,0,1,116,65)" stroke-linecap="butt">
      <path fill="none" d="M150 -0.9902 L150 60 L100.0098 60" clip-path="url(#clipPath2)"/>
      <circle transform="matrix(0,-1,1,0,150,-9.9902)" clip-path="url(#clipPath17)" fill="white" r="5" cx="-15" cy="0" stroke="none"/>
      <circle fill="none" r="5" clip-path="url(#clipPath17)" cx="-15" transform="matrix(0,-1,1,0,150,-9.9902)" cy="0"/>
      <line transform="matrix(0,-1,1,0,150,-9.9902)" clip-path="url(#clipPath4)" fill="none" x1="-10" x2="2" y1="0" y2="8"/>
      <line transform="matrix(0,-1,1,0,150,-9.9902)" clip-path="url(#clipPath4)" fill="none" x1="-10" x2="2" y1="0" y2="0"/>
      <line transform="matrix(0,-1,1,0,150,-9.9902)" clip-path="url(#clipPath4)" fill="none" x1="-10" x2="2" y1="0" y2="-8"/>
    </g>
    <g text-rendering="geometricPrecision" stroke-miterlimit="1.45" shape-rendering="geometricPrecision" transform="matrix(-1,0,0,-1,216.0098,125)" stroke-linecap="butt">
      <line y2="8" fill="none" x1="-10" clip-path="url(#clipPath18)" x2="-10" y1="-8"/>
    </g>
  </g>
</svg>
